<svg width="26" height="26" viewBox="0 0 26 26" fill="none" xmlns="http://www.w3.org/2000/svg">
<g clip-path="url(#clip0_379_881)">
<path d="M21.6667 0H4.33333C1.9401 0 0 1.9401 0 4.33333V21.6667C0 24.0599 1.9401 26 4.33333 26H21.6667C24.0599 26 26 24.0599 26 21.6667V4.33333C26 1.9401 24.0599 0 21.6667 0Z" fill="#C4241D"/>
<path d="M8.37617 14.1131V16.0616H2.70801V14.3584L6.55037 10.2981L7.40875 11.3336H2.78976V9.38513H8.32162V11.0883L4.46567 15.1623L3.92066 14.1131H8.37617ZM12.2554 16.1842C11.5831 16.1842 10.9927 16.0434 10.4841 15.7618C9.98443 15.4802 9.59384 15.0805 9.31222 14.5628C9.03067 14.045 8.88989 13.4319 8.88989 12.7234C8.88989 12.0421 9.03067 11.438 9.31222 10.9112C9.59384 10.3843 9.98443 9.97105 10.4841 9.6713C10.9927 9.36238 11.5831 9.20801 12.2554 9.20801C12.9548 9.20801 13.5543 9.36699 14.0539 9.68489C14.5534 10.0028 14.9395 10.4252 15.2121 10.9521C15.4846 11.4698 15.6208 12.0512 15.6208 12.6961C15.6208 12.8415 15.6162 12.9731 15.6072 13.0912C15.598 13.2094 15.5845 13.3047 15.5663 13.3774H10.5386V11.8786H13.8631L13.6724 12.3691C13.6724 11.9422 13.5588 11.5924 13.3318 11.3199C13.1046 11.0475 12.7549 10.9112 12.2826 10.9112C11.8466 10.9112 11.5014 11.0383 11.2471 11.2927C10.9927 11.547 10.8656 11.8877 10.8656 12.3146V13.064C10.8656 13.5273 11.0018 13.886 11.2743 14.1404C11.5468 14.3856 11.9283 14.5083 12.4188 14.5083C12.8094 14.5083 13.1182 14.4356 13.3454 14.2903C13.5815 14.1359 13.7768 13.9405 13.9313 13.7044L15.4028 14.4946C15.1212 15.0124 14.7079 15.4257 14.1629 15.7345C13.6179 16.0343 12.982 16.1842 12.2554 16.1842Z" fill="white"/>
<path d="M19.6681 9.20801C21.6285 9.20812 23.2175 10.7975 23.2175 12.7579C23.2174 14.7183 21.6284 16.3073 19.6681 16.3073C17.7077 16.3073 16.1183 14.7183 16.1182 12.7579C16.1182 10.7975 17.7076 9.20801 19.6681 9.20801ZM19.6676 11.4307C18.9349 11.4307 18.3409 12.0247 18.3409 12.7574C18.3409 13.4901 18.9349 14.084 19.6676 14.0841C20.4003 14.0841 20.9942 13.4901 20.9942 12.7574C20.9942 12.0247 20.4003 11.4307 19.6676 11.4307Z" fill="white"/>
</g>
<defs>
<clipPath id="clip0_379_881">
<rect width="26" height="26" fill="white"/>
</clipPath>
</defs>
</svg>
