<svg width="26" height="26" viewBox="0 0 26 26" fill="none" xmlns="http://www.w3.org/2000/svg">
<path fill-rule="evenodd" clip-rule="evenodd" d="M26 8.09746C26 7.7888 26.0001 7.48012 25.9982 7.17143C25.9967 6.9114 25.9937 6.65143 25.9866 6.39153C25.9713 5.82505 25.9379 5.25372 25.8372 4.69355C25.735 4.12531 25.5682 3.59644 25.3052 3.08014C25.0467 2.57267 24.7091 2.1083 24.3062 1.70571C23.9034 1.30312 23.439 0.965688 22.9313 0.707362C22.4145 0.444365 21.885 0.277574 21.3162 0.175436C20.7559 0.0748444 20.1844 0.0414926 19.618 0.0261892C19.3579 0.0191528 19.0978 0.0161868 18.8376 0.0145776C18.5288 0.0126844 18.2199 0.0128422 17.9111 0.0128422L14.3251 0H11.6431L8.12062 0.0128422C7.81118 0.0128422 7.50173 0.0126844 7.19229 0.0145776C6.9316 0.0161868 6.67103 0.0191528 6.41044 0.0261892C5.84264 0.0414926 5.26985 0.0748759 4.7083 0.175594C4.13867 0.2777 3.60845 0.444428 3.09092 0.707235C2.58218 0.965594 2.11668 1.30306 1.71305 1.70571C1.30949 2.10826 0.971206 2.57254 0.71225 3.07992C0.448591 3.59647 0.281423 4.12566 0.179001 4.69421C0.0781572 5.25416 0.0447424 5.8253 0.029376 6.39153C0.0223712 6.65146 0.0193421 6.91143 0.0177644 7.17143C0.0158712 7.48015 0 7.86361 0 8.1723L9.46595e-05 11.646L0 14.3567L0.016029 17.9042C0.016029 18.2133 0.0159028 18.5224 0.0177644 18.8315C0.0193421 19.0919 0.0223712 19.3522 0.0294076 19.6125C0.0447424 20.1797 0.0782203 20.7519 0.179159 21.3128C0.281549 21.8818 0.448686 22.4114 0.712123 22.9284C0.971112 23.4366 1.30946 23.9016 1.71305 24.3047C2.11665 24.7079 2.58203 25.0457 3.09066 25.3044C3.60851 25.5678 4.13899 25.7348 4.70896 25.8371C5.27026 25.9378 5.84286 25.9712 6.41044 25.9865C6.67103 25.9936 6.93163 25.9966 7.19232 25.9981C7.50177 26 7.81118 25.9999 8.12062 25.9999L11.675 26H14.3636L17.9111 25.9999C18.2199 25.9999 18.5288 26 18.8376 25.9981C19.0978 25.9966 19.3579 25.9936 19.618 25.9865C20.1847 25.9712 20.7563 25.9377 21.3168 25.8369C21.8853 25.7347 22.4145 25.5677 22.9311 25.3045C23.4388 25.0459 23.9034 24.7079 24.3062 24.3047C24.709 23.9016 25.0467 23.4367 25.3051 22.9286C25.5682 22.4114 25.7351 21.8815 25.8373 21.3121C25.938 20.7514 25.9713 20.1795 25.9867 19.6125C25.9937 19.3522 25.9967 19.0919 25.9982 18.8315C26.0002 18.5224 26 18.2133 26 17.9042C26 17.9042 25.9998 14.4194 25.9998 14.3567V11.6432C25.9998 11.5969 26 8.09746 26 8.09746" fill="#C4241D"/>
<path d="M8.75993 14.3709V16.3194H3.0918V14.6162L6.93414 10.5558L7.79253 11.5914H3.17355V9.64295H8.70543V11.3461L4.84946 15.4201L4.30445 14.3709H8.75993ZM12.6391 16.442C11.9669 16.442 11.3765 16.3012 10.8678 16.0196C10.3682 15.738 9.97761 15.3383 9.69604 14.8206C9.41444 14.3028 9.27365 13.6897 9.27365 12.9812C9.27365 12.2999 9.41444 11.6959 9.69604 11.169C9.97761 10.6421 10.3682 10.2288 10.8678 9.92908C11.3765 9.62022 11.9669 9.46582 12.6391 9.46582C13.3385 9.46582 13.9381 9.62481 14.4377 9.94271C14.9372 10.2606 15.3233 10.683 15.5958 11.2099C15.8683 11.7276 16.0046 12.309 16.0046 12.9539C16.0046 13.0993 16 13.2309 15.991 13.349C15.9819 13.4672 15.9682 13.5625 15.9501 13.6352H10.9223V12.1364H14.2469L14.0562 12.6269C14.0562 12.2 13.9426 11.8503 13.7155 11.5778C13.4884 11.3052 13.1387 11.169 12.6664 11.169C12.2304 11.169 11.8852 11.2961 11.6309 11.5505C11.3765 11.8049 11.2494 12.1455 11.2494 12.5724V13.3218C11.2494 13.7851 11.3856 14.1438 11.6581 14.3982C11.9306 14.6435 12.3121 14.7661 12.8026 14.7661C13.1932 14.7661 13.502 14.6934 13.7292 14.5481C13.9653 14.3937 14.1606 14.1983 14.315 13.9622L15.7866 14.7525C15.505 15.2702 15.0917 15.6835 14.5467 15.9924C14.0017 16.2921 13.3658 16.442 12.6391 16.442Z" fill="white"/>
<path d="M20.0518 9.46582C22.0122 9.46582 23.6015 11.0552 23.6016 13.0156C23.6016 14.9761 22.0122 16.5654 20.0518 16.5654C18.0915 16.5652 16.502 14.976 16.502 13.0156C16.502 11.0554 18.0915 9.46605 20.0518 9.46582ZM20.0518 11.6885C19.3191 11.6885 18.7246 12.2829 18.7246 13.0156C18.7248 13.7482 19.3192 14.3418 20.0518 14.3418C20.7843 14.3417 21.3777 13.7481 21.3779 13.0156C21.3779 12.283 20.7844 11.6885 20.0518 11.6885Z" fill="white"/>
</svg>
