<?xml version="1.0" encoding="UTF-8" standalone="no"?>
<svg
   version="1.1"
   width="330"
   height="360"
   viewBox="0 0 43.656251 47.625"
   id="svg67"
   sodipodi:docname="minimum-soldermask-sliver.svg"
   inkscape:version="1.4.3 (0d15f75, 2025-12-25)"
   xmlns:inkscape="http://www.inkscape.org/namespaces/inkscape"
   xmlns:sodipodi="http://sodipodi.sourceforge.net/DTD/sodipodi-0.dtd"
   xmlns="http://www.w3.org/2000/svg"
   xmlns:svg="http://www.w3.org/2000/svg"
   xmlns:rdf="http://www.w3.org/1999/02/22-rdf-syntax-ns#"
   xmlns:cc="http://creativecommons.org/ns#"
   xmlns:dc="http://purl.org/dc/elements/1.1/">
  <defs
     id="defs67">
    <marker
       style="overflow:visible"
       id="marker70"
       refX="0"
       refY="0"
       orient="auto-start-reverse"
       inkscape:stockid="Triangle arrow"
       markerWidth="1"
       markerHeight="1"
       viewBox="0 0 1 1"
       inkscape:isstock="true"
       inkscape:collect="always"
       preserveAspectRatio="xMidYMid">
      <path
         transform="scale(0.5)"
         style="fill:context-stroke;fill-rule:evenodd;stroke:context-stroke;stroke-width:1pt"
         d="M 5.77,0 -2.88,5 V -5 Z"
         id="path70" />
    </marker>
    <marker
       style="overflow:visible"
       id="marker69"
       refX="0"
       refY="0"
       orient="auto-start-reverse"
       inkscape:stockid="Triangle arrow"
       markerWidth="1"
       markerHeight="1"
       viewBox="0 0 1 1"
       inkscape:isstock="true"
       inkscape:collect="always"
       preserveAspectRatio="xMidYMid">
      <path
         transform="scale(0.5)"
         style="fill:context-stroke;fill-rule:evenodd;stroke:context-stroke;stroke-width:1pt"
         d="M 5.77,0 -2.88,5 V -5 Z"
         id="path69" />
    </marker>
  </defs>
  <sodipodi:namedview
     id="namedview67"
     pagecolor="#ffffff"
     bordercolor="#ded3dd"
     borderopacity="0.25"
     inkscape:showpageshadow="2"
     inkscape:pageopacity="0.0"
     inkscape:pagecheckerboard="0"
     inkscape:deskcolor="#d1d1d1"
     inkscape:document-units="mm"
     inkscape:zoom="5.4324131"
     inkscape:cx="208.93109"
     inkscape:cy="235.80681"
     inkscape:window-width="1511"
     inkscape:window-height="739"
     inkscape:window-x="1"
     inkscape:window-y="79"
     inkscape:window-maximized="0"
     inkscape:current-layer="svg67" />
  <title
     id="title1">SVG Image created as RuleCheckProject-B_Cu.svg date 2026-03-06T00:25:47 </title>
  <desc
     id="desc1">Image generated by PCBNEW </desc>
  <rect
     style="fill:#42b8eb;fill-opacity:1;stroke:#42b8eb;stroke-width:0.18911;stroke-linecap:square;stroke-linejoin:round;stroke-opacity:1"
     id="rect1"
     width="36.709652"
     height="30.352718"
     x="3.5398808"
     y="3.4125841" />
  <g
     style="fill:#ded3dd;fill-opacity:1;stroke:#ded3dd;stroke-linecap:round;stroke-linejoin:round;stroke-opacity:1"
     transform="matrix(1.7311785,0,0,1.5189453,-180.6704,-68.199315)"
     id="g17">
    <path
       style="fill:#f29100;fill-opacity:1;fill-rule:evenodd;stroke:#545454;stroke-width:0.3;stroke-dasharray:none;stroke-opacity:1"
       d="m 123.334,49.323 0.0957,0.019 0.0811,0.0542 0.0542,0.0811 0.019,0.0957 v 1.5 l -0.019,0.0957 -0.0542,0.0811 -0.0811,0.0542 -0.0957,0.019 h -1.28 l -0.0957,-0.019 -0.0811,-0.0542 -0.0542,-0.0811 -0.019,-0.0957 v -1.5 l 0.019,-0.0957 0.0542,-0.0811 0.0811,-0.0542 0.0957,-0.019 z"
       id="path5" />
    <path
       style="fill:#f29100;fill-opacity:1;fill-rule:evenodd;stroke:#545454;stroke-width:0.3;stroke-dasharray:none;stroke-opacity:1"
       d="m 120.794,49.323 0.0957,0.019 0.0811,0.0542 0.0542,0.0811 0.019,0.0957 v 1.5 l -0.019,0.0957 -0.0542,0.0811 -0.0811,0.0542 -0.0957,0.019 h -1.28 l -0.0957,-0.019 -0.0811,-0.0542 -0.0542,-0.0811 -0.019,-0.0957 v -1.5 l 0.019,-0.0957 0.0542,-0.0811 0.0811,-0.0542 0.0957,-0.019 z"
       id="path6" />
    <path
       style="fill:#f29100;fill-opacity:1;fill-rule:evenodd;stroke:#545454;stroke-width:0.3;stroke-dasharray:none;stroke-opacity:1"
       d="m 118.254,49.323 0.0957,0.019 0.0811,0.0542 0.0542,0.0811 0.019,0.0957 v 1.5 l -0.019,0.0957 -0.0542,0.0811 -0.0811,0.0542 -0.0957,0.019 h -1.28 l -0.0957,-0.019 -0.0811,-0.0542 -0.0542,-0.0811 -0.019,-0.0957 v -1.5 l 0.019,-0.0957 0.0542,-0.0811 0.0811,-0.0542 0.0957,-0.019 z"
       id="path7" />
    <path
       style="fill:#f29100;fill-opacity:1;fill-rule:evenodd;stroke:#545454;stroke-width:0.3;stroke-dasharray:none;stroke-opacity:1"
       d="m 115.714,49.323 0.0957,0.019 0.0811,0.0542 0.0542,0.0811 0.019,0.0957 v 1.5 l -0.019,0.0957 -0.0542,0.0811 -0.0811,0.0542 -0.0957,0.019 h -1.28 l -0.0957,-0.019 -0.0811,-0.0542 -0.0542,-0.0811 -0.019,-0.0957 v -1.5 l 0.019,-0.0957 0.0542,-0.0811 0.0811,-0.0542 0.0957,-0.019 z"
       id="path8" />
    <path
       style="fill:#f29100;fill-opacity:1;fill-rule:evenodd;stroke:#545454;stroke-width:0.3;stroke-dasharray:none;stroke-opacity:1"
       d="m 113.174,49.323 0.0957,0.019 0.0811,0.0542 0.0542,0.0811 0.019,0.0957 v 1.5 l -0.019,0.0957 -0.0542,0.0811 -0.0811,0.0542 -0.0957,0.019 h -1.28 l -0.0957,-0.019 -0.0811,-0.0542 -0.0542,-0.0811 -0.019,-0.0957 v -1.5 l 0.019,-0.0957 0.0542,-0.0811 0.0811,-0.0542 0.0957,-0.019 z"
       id="path9" />
    <path
       style="fill:#f29100;fill-opacity:1;fill-rule:evenodd;stroke:#545454;stroke-width:0.3;stroke-dasharray:none;stroke-opacity:1"
       d="m 110.634,49.323 0.0957,0.019 0.0811,0.0542 0.0542,0.0811 0.019,0.0957 v 1.5 l -0.019,0.0957 -0.0542,0.0811 -0.0811,0.0542 -0.0957,0.019 h -1.28 l -0.0957,-0.019 -0.0811,-0.0542 -0.0542,-0.0811 -0.019,-0.0957 v -1.5 l 0.019,-0.0957 0.0542,-0.0811 0.0811,-0.0542 0.0957,-0.019 z"
       id="path10" />
    <path
       style="fill:#f29100;fill-opacity:1;fill-rule:evenodd;stroke:#545454;stroke-width:0.3;stroke-dasharray:none;stroke-opacity:1"
       d="m 110.634,60.803 0.0957,0.019 0.0811,0.0542 0.0542,0.0811 0.019,0.0957 v 1.5 l -0.019,0.0957 -0.0542,0.0811 -0.0811,0.0542 -0.0957,0.019 h -1.28 l -0.0957,-0.019 -0.0811,-0.0542 -0.0542,-0.0811 -0.019,-0.0957 v -1.5 l 0.019,-0.0957 0.0542,-0.0811 0.0811,-0.0542 0.0957,-0.019 z"
       id="path11" />
    <path
       style="fill:#f29100;fill-opacity:1;fill-rule:evenodd;stroke:#545454;stroke-width:0.3;stroke-dasharray:none;stroke-opacity:1"
       d="m 113.174,60.803 0.0957,0.019 0.0811,0.0542 0.0542,0.0811 0.019,0.0957 v 1.5 l -0.019,0.0957 -0.0542,0.0811 -0.0811,0.0542 -0.0957,0.019 h -1.28 l -0.0957,-0.019 -0.0811,-0.0542 -0.0542,-0.0811 -0.019,-0.0957 v -1.5 l 0.019,-0.0957 0.0542,-0.0811 0.0811,-0.0542 0.0957,-0.019 z"
       id="path12" />
    <path
       style="fill:#f29100;fill-opacity:1;fill-rule:evenodd;stroke:#545454;stroke-width:0.3;stroke-dasharray:none;stroke-opacity:1"
       d="m 115.714,60.803 0.0957,0.019 0.0811,0.0542 0.0542,0.0811 0.019,0.0957 v 1.5 l -0.019,0.0957 -0.0542,0.0811 -0.0811,0.0542 -0.0957,0.019 h -1.28 l -0.0957,-0.019 -0.0811,-0.0542 -0.0542,-0.0811 -0.019,-0.0957 v -1.5 l 0.019,-0.0957 0.0542,-0.0811 0.0811,-0.0542 0.0957,-0.019 z"
       id="path13" />
    <path
       style="fill:#f29100;fill-opacity:1;fill-rule:evenodd;stroke:#545454;stroke-width:0.3;stroke-dasharray:none;stroke-opacity:1"
       d="m 118.254,60.803 0.0957,0.019 0.0811,0.0542 0.0542,0.0811 0.019,0.0957 v 1.5 l -0.019,0.0957 -0.0542,0.0811 -0.0811,0.0542 -0.0957,0.019 h -1.28 l -0.0957,-0.019 -0.0811,-0.0542 -0.0542,-0.0811 -0.019,-0.0957 v -1.5 l 0.019,-0.0957 0.0542,-0.0811 0.0811,-0.0542 0.0957,-0.019 z"
       id="path14" />
    <path
       style="fill:#f29100;fill-opacity:1;fill-rule:evenodd;stroke:#545454;stroke-width:0.3;stroke-dasharray:none;stroke-opacity:1"
       d="m 120.794,60.803 0.0957,0.019 0.0811,0.0542 0.0542,0.0811 0.019,0.0957 v 1.5 l -0.019,0.0957 -0.0542,0.0811 -0.0811,0.0542 -0.0957,0.019 h -1.28 l -0.0957,-0.019 -0.0811,-0.0542 -0.0542,-0.0811 -0.019,-0.0957 v -1.5 l 0.019,-0.0957 0.0542,-0.0811 0.0811,-0.0542 0.0957,-0.019 z"
       id="path15" />
    <path
       style="fill:#f29100;fill-opacity:1;fill-rule:evenodd;stroke:#545454;stroke-width:0.3;stroke-dasharray:none;stroke-opacity:1"
       d="m 123.334,60.803 0.0957,0.019 0.0811,0.0542 0.0542,0.0811 0.019,0.0957 v 1.5 l -0.019,0.0957 -0.0542,0.0811 -0.0811,0.0542 -0.0957,0.019 h -1.28 l -0.0957,-0.019 -0.0811,-0.0542 -0.0542,-0.0811 -0.019,-0.0957 v -1.5 l 0.019,-0.0957 0.0542,-0.0811 0.0811,-0.0542 0.0957,-0.019 z"
       id="path16" />
    <path
       style="fill:#1a81c4;fill-opacity:0;fill-rule:evenodd;stroke:none"
       d="m 141.0155,47.3742 0.0458,0.0528 0.0112,0.0515 v 19.257 l -0.0197,0.067 -0.0528,0.0458 -0.0515,0.0112 h -34.835 l -0.067,-0.0197 -0.0458,-0.0528 -0.0112,-0.0515 V 61.003 h 2.614 v 1.6 l 0.0105,0.1028 v 0 l 0.0552,0.1665 0.0921,0.1494 0.124,0.124 0.1494,0.0921 0.1665,0.0552 0.1028,0.0105 v 0 h 1.38 v 0 l 0.1028,-0.0105 0.1665,-0.0552 0.1494,-0.0921 0.0736,-0.0737 0.0613,-0.0334 0.0697,0.0049 0.0444,0.0285 0.0736,0.0737 0.1494,0.0921 0.1665,0.0552 0.1028,0.0105 v 0 h 1.38 v 0 l 0.1028,-0.0105 0.1665,-0.0552 0.1494,-0.0921 0.0736,-0.0737 0.0613,-0.0334 0.0697,0.0049 0.0444,0.0285 0.0736,0.0737 0.1494,0.0921 0.1665,0.0552 0.1028,0.0105 v 0 h 1.38 v 0 l 0.1028,-0.0105 0.1665,-0.0552 0.1494,-0.0921 0.0736,-0.0737 0.0613,-0.0334 0.0697,0.0049 0.0444,0.0285 0.0736,0.0737 0.1494,0.0921 0.1665,0.0552 0.1028,0.0105 v 0 h 1.38 v 0 l 0.1028,-0.0105 0.1665,-0.0552 0.1494,-0.0921 0.0736,-0.0737 0.0613,-0.0334 0.0697,0.0049 0.0444,0.0285 0.0736,0.0737 0.1494,0.0921 0.1665,0.0552 0.1028,0.0105 v 0 h 1.38 v 0 l 0.1028,-0.0105 0.1665,-0.0552 0.1494,-0.0921 0.0736,-0.0737 0.0613,-0.0334 0.0697,0.0049 0.0444,0.0285 0.0736,0.0737 0.1494,0.0921 0.1665,0.0552 0.1028,0.0105 v 0 h 1.38 v 0 l 0.1028,-0.0105 0.1665,-0.0552 0.1494,-0.0921 0.124,-0.124 0.0921,-0.1494 0.0552,-0.1665 0.0105,-0.1028 v -1.6 l -0.0105,-0.1028 -0.0552,-0.1665 -0.0921,-0.1494 -0.124,-0.124 -0.1494,-0.0921 -0.1665,-0.0552 v 0 l -0.1028,-0.0105 v 0 h -1.38 v 0 l -0.1028,0.0105 v 0 l -0.0825,0.0273 -0.084,0.0279 v 0 l -0.1494,0.0921 -0.0736,0.0737 -0.0613,0.0334 -0.0697,-0.0049 -0.0444,-0.0285 -0.0736,-0.0737 v 0 l -0.1494,-0.0921 -0.1665,-0.0552 v 0 l -0.1028,-0.0105 v 0 h -1.38 v 0 l -0.1028,0.0105 v 0 l -0.0825,0.0273 -0.084,0.0279 v 0 l -0.1494,0.0921 -0.0736,0.0737 -0.0613,0.0334 -0.0697,-0.0049 -0.0444,-0.0285 -0.0736,-0.0737 v 0 l -0.1494,-0.0921 -0.1665,-0.0552 v 0 l -0.1028,-0.0105 v 0 h -1.38 v 0 l -0.1028,0.0105 v 0 l -0.0825,0.0273 -0.084,0.0279 v 0 l -0.1494,0.0921 -0.0736,0.0737 -0.0613,0.0334 -0.0697,-0.0049 -0.0444,-0.0285 -0.0736,-0.0737 v 0 l -0.1494,-0.0921 -0.1665,-0.0552 v 0 l -0.1028,-0.0105 v 0 h -1.38 v 0 l -0.1028,0.0105 v 0 l -0.0825,0.0273 -0.084,0.0279 v 0 l -0.1494,0.0921 -0.0736,0.0737 -0.0613,0.0334 -0.0697,-0.0049 -0.0444,-0.0285 -0.0736,-0.0737 v 0 l -0.1494,-0.0921 -0.1665,-0.0552 v 0 l -0.1028,-0.0105 v 0 h -1.38 v 0 l -0.1028,0.0105 v 0 l -0.0825,0.0273 -0.084,0.0279 v 0 l -0.1494,0.0921 -0.0736,0.0737 -0.0613,0.0334 -0.0697,-0.0049 -0.0444,-0.0285 -0.0736,-0.0737 v 0 l -0.1494,-0.0921 -0.1665,-0.0552 v 0 l -0.1028,-0.0105 v 0 h -1.38 v 0 l -0.1028,0.0105 v 0 l -0.0825,0.0273 -0.084,0.0279 v 0 l -0.1494,0.0921 -0.124,0.124 -0.0921,0.1494 v 0 l -0.0552,0.1665 v 0 0 l -0.0105,0.1028 h -2.614 V 58.8 h 24.272 v 2.916 0 l 0.0106,0.1194 0.056,0.1956 v 0 0 l 0.0942,0.1804 v 0 l 0.1286,0.1577 0.0939,0.0766 0.0638,0.052 0.1804,0.0942 0.1956,0.056 0.1194,0.0106 h 1.116 l 0.1194,-0.0106 0.1956,-0.056 0.1804,-0.0942 0.1577,-0.1286 0.1286,-0.1577 0.0942,-0.1804 0.056,-0.1956 0.0106,-0.1194 V 58.8 l -0.0106,-0.1194 -0.056,-0.1956 -0.0942,-0.1804 -0.052,-0.0638 -0.0766,-0.0939 -0.1577,-0.1286 v 0 0 l -0.1804,-0.0942 v 0 0 l -0.1172,-0.0336 -0.0784,-0.0224 v 0 0 l -0.0663,-0.0059 -0.0531,-0.0047 v 0 h -1.116 v 0 0 l -0.0117,10e-4 -0.1077,0.0096 -0.1956,0.056 -0.0902,0.0471 -0.0902,0.0471 v 0 0 l -0.1577,0.1286 -0.1286,0.1577 -0.0942,0.1804 -0.056,0.1956 v 0 L 130.2615,58.8 h -24.272 v -1.2931 h 30.572 v 0.9022 0 l 0.003,0.0428 v 0 l 0.046,0.1848 0.0846,0.1706 v 0 l 0.1193,0.1484 v 0 l 0.0692,0.0557 0.0399,0.0573 0.003,0.0698 -0.0356,0.0602 -0.007,0.0059 -0.0692,0.0557 v 0 l -0.1193,0.1484 v 0 l -0.0846,0.1706 -0.046,0.1848 -0.003,0.0428 v 0.9022 0 l 0.003,0.0428 v 0 l 0.046,0.1848 0.0846,0.1706 v 0 l 0.1193,0.1484 v 0 l 0.0692,0.0557 0.0399,0.0573 0.003,0.0698 -0.0356,0.0602 -0.007,0.0059 -0.0692,0.0557 v 0 l -0.1193,0.1484 v 0 l -0.0846,0.1706 -0.046,0.1848 -0.003,0.0428 v 0.9022 0 l 0.003,0.0428 v 0 l 0.046,0.1848 0.0846,0.1706 v 0 l 0.1193,0.1484 v 0 l 0.1484,0.1193 v 0 l 0.1706,0.0846 v 0 0 l 0.1848,0.046 0.0428,0.0029 h 1.4022 l 0.0428,-0.0029 0.1848,-0.046 0.1706,-0.0846 0.1484,-0.1193 0.1193,-0.1484 0.0846,-0.1706 0.046,-0.1848 0.003,-0.0428 v -0.9022 l -0.003,-0.0428 -0.046,-0.1848 -0.0809,-0.1633 -0.004,-0.0073 v 0 l -0.1193,-0.1484 v 0 l -0.0692,-0.0557 -0.0399,-0.0573 -0.003,-0.0698 0.0356,-0.0602 0.007,-0.0059 0.009,-0.0076 0.0598,-0.0481 0.1193,-0.1484 0.0846,-0.1706 0.046,-0.1848 0.003,-0.0428 v -0.9022 l -0.003,-0.0428 -0.046,-0.1848 -0.003,-0.0052 -0.082,-0.1654 v 0 l -0.1193,-0.1484 v 0 l -0.0692,-0.0557 -0.0399,-0.0573 -0.003,-0.0698 0.0356,-0.0602 0.007,-0.0059 0.009,-0.0076 0.0598,-0.0481 0.1193,-0.1484 0.0846,-0.1706 0.046,-0.1848 0.003,-0.0428 v -0.9022 l -0.003,-0.0428 -0.046,-0.1848 -0.003,-0.0052 -0.082,-0.1654 v 0 l -0.1193,-0.1484 v 0 l -0.1484,-0.1193 v 0 l -0.1706,-0.0846 -0.1848,-0.046 -0.0214,-0.0015 -0.0214,-0.0014 v 0 h -1.4022 v 0 l -0.0428,0.0029 v 0 l -0.1848,0.046 -0.1706,0.0846 v 0 l -0.1484,0.1193 v 0 l -0.1193,0.1484 v 0 l -0.0846,0.1706 -0.046,0.1848 -0.003,0.0428 h -30.572 V 49.523 h 2.614 v 1.6 l 0.0105,0.1028 v 0 l 0.0552,0.1665 0.0921,0.1494 0.124,0.124 0.1494,0.0921 0.1665,0.0552 0.1028,0.0105 v 0 h 1.38 v 0 l 0.1028,-0.0105 0.1665,-0.0552 0.1494,-0.0921 0.0736,-0.0737 0.0613,-0.0334 0.0697,0.0049 0.0444,0.0285 0.0736,0.0737 0.1494,0.0921 0.1665,0.0552 0.1028,0.0105 v 0 h 1.38 v 0 l 0.1028,-0.0105 0.1665,-0.0552 0.1494,-0.0921 0.0736,-0.0737 0.0613,-0.0334 0.0697,0.0049 0.0444,0.0285 0.0736,0.0737 0.1494,0.0921 0.1665,0.0552 0.1028,0.0105 v 0 h 1.38 v 0 l 0.1028,-0.0105 0.1665,-0.0552 0.1494,-0.0921 0.0736,-0.0737 0.0613,-0.0334 0.0697,0.0049 0.0444,0.0285 0.0736,0.0737 0.1494,0.0921 0.1665,0.0552 0.1028,0.0105 v 0 h 1.38 v 0 l 0.1028,-0.0105 0.1665,-0.0552 0.1494,-0.0921 0.0736,-0.0737 0.0613,-0.0334 0.0697,0.0049 0.0444,0.0285 0.0736,0.0737 0.1494,0.0921 0.1665,0.0552 0.1028,0.0105 v 0 h 1.38 v 0 l 0.1028,-0.0105 0.1665,-0.0552 0.1494,-0.0921 0.0736,-0.0737 0.0613,-0.0334 0.0697,0.0049 0.0444,0.0285 0.0736,0.0737 0.1494,0.0921 0.1665,0.0552 0.1028,0.0105 v 0 h 1.38 v 0 l 0.1028,-0.0105 0.1665,-0.0552 0.1494,-0.0921 0.124,-0.124 0.0921,-0.1494 0.0552,-0.1665 0.0105,-0.1028 v -1.6 l -0.0105,-0.1028 -0.0552,-0.1665 -0.0921,-0.1494 -0.124,-0.124 -0.1494,-0.0921 -0.1665,-0.0552 v 0 l -0.1028,-0.0105 v 0 h -1.38 v 0 l -0.1028,0.0105 v 0 l -0.0825,0.0273 -0.084,0.0279 v 0 l -0.1494,0.0921 -0.0736,0.0737 -0.0613,0.0334 -0.0697,-0.0049 -0.0444,-0.0285 -0.0736,-0.0737 v 0 l -0.1494,-0.0921 -0.1665,-0.0552 v 0 l -0.1028,-0.0105 v 0 h -1.38 v 0 l -0.1028,0.0105 v 0 l -0.0825,0.0273 -0.084,0.0279 v 0 l -0.1494,0.0921 -0.0736,0.0737 -0.0613,0.0334 -0.0697,-0.0049 -0.0444,-0.0285 -0.0736,-0.0737 v 0 l -0.1494,-0.0921 -0.1665,-0.0552 v 0 l -0.1028,-0.0105 v 0 h -1.38 v 0 l -0.1028,0.0105 v 0 l -0.0825,0.0273 -0.084,0.0279 v 0 l -0.1494,0.0921 -0.0736,0.0737 -0.0613,0.0334 -0.0697,-0.0049 -0.0444,-0.0285 -0.0736,-0.0737 v 0 l -0.1494,-0.0921 -0.1665,-0.0552 v 0 l -0.1028,-0.0105 v 0 h -1.38 v 0 l -0.1028,0.0105 v 0 l -0.0825,0.0273 -0.084,0.0279 v 0 l -0.1494,0.0921 -0.0736,0.0737 -0.0613,0.0334 -0.0697,-0.0049 -0.0444,-0.0285 -0.0736,-0.0737 v 0 l -0.1494,-0.0921 -0.1665,-0.0552 v 0 l -0.1028,-0.0105 v 0 h -1.38 v 0 l -0.1028,0.0105 v 0 l -0.0825,0.0273 -0.084,0.0279 v 0 l -0.1494,0.0921 -0.0736,0.0737 -0.0613,0.0334 -0.0697,-0.0049 -0.0444,-0.0285 -0.0736,-0.0737 v 0 l -0.1494,-0.0921 -0.1665,-0.0552 v 0 l -0.1028,-0.0105 v 0 h -1.38 v 0 l -0.1028,0.0105 v 0 l -0.0825,0.0273 -0.084,0.0279 v 0 l -0.1494,0.0921 -0.124,0.124 -0.0921,0.1494 v 0 l -0.0552,0.1665 v 0 0 l -0.0105,0.1028 h -2.614 v -2.0445 l 0.0197,-0.067 0.0528,-0.0458 0.0515,-0.0112 h 34.835 z"
       id="path17" />
  </g>
  <g
     style="fill:none;stroke:#f2eda1;stroke-width:0.3;stroke-linecap:round;stroke-linejoin:round;stroke-dasharray:none;stroke-opacity:1"
     id="g51"
     transform="matrix(1.7311785,0,0,1.5189453,-180.6704,-68.199315)">
    <text
       x="131.528"
       y="64.319"
       textLength="2.25"
       font-size="1.3333px"
       lengthAdjust="spacingAndGlyphs"
       text-anchor="middle"
       opacity="0"
       stroke-opacity="0"
       id="text17"
       style="stroke-width:0.3;stroke-dasharray:none">U2</text>
    <text
       x="125.583"
       y="59.287998"
       textLength="2.25"
       font-size="1.3333px"
       lengthAdjust="spacingAndGlyphs"
       text-anchor="middle"
       opacity="0"
       stroke-opacity="0"
       id="text36"
       style="stroke-width:0.3;stroke-dasharray:none">U1</text>
    <g
       class="stroked-text"
       id="g50"
       style="stroke-width:0.3;stroke-dasharray:none">
      <desc
         id="desc36">U1</desc>
      <path
         d="m 124.8211,58.2428 v 0.8095"
         id="path37"
         style="stroke-width:0.3;stroke-dasharray:none" />
      <path
         d="m 124.8211,59.0523 0.0476,0.0953"
         id="path38"
         style="stroke-width:0.3;stroke-dasharray:none" />
      <path
         d="m 124.8687,59.1476 0.0476,0.0476"
         id="path39"
         style="stroke-width:0.3;stroke-dasharray:none" />
      <path
         d="m 124.9163,59.1952 0.0953,0.0476"
         id="path40"
         style="stroke-width:0.3;stroke-dasharray:none" />
      <path
         d="m 125.0116,59.2428 h 0.1904"
         id="path41"
         style="stroke-width:0.3;stroke-dasharray:none" />
      <path
         d="m 125.202,59.2428 0.0953,-0.0476"
         id="path42"
         style="stroke-width:0.3;stroke-dasharray:none" />
      <path
         d="m 125.2973,59.1952 0.0476,-0.0476"
         id="path43"
         style="stroke-width:0.3;stroke-dasharray:none" />
      <path
         d="m 125.3449,59.1476 0.0476,-0.0953"
         id="path44"
         style="stroke-width:0.3;stroke-dasharray:none" />
      <path
         d="M 125.3925,59.0523 V 58.2428"
         id="path45"
         style="stroke-width:0.3;stroke-dasharray:none" />
      <path
         d="m 126.3925,59.2428 h -0.5714"
         id="path46"
         style="stroke-width:0.3;stroke-dasharray:none" />
      <path
         d="m 126.1068,59.2428 v -1"
         id="path47"
         style="stroke-width:0.3;stroke-dasharray:none" />
      <path
         d="m 126.1068,58.2428 -0.0952,0.1429"
         id="path48"
         style="stroke-width:0.3;stroke-dasharray:none" />
      <path
         d="m 126.0116,58.3857 -0.0953,0.0952"
         id="path49"
         style="stroke-width:0.3;stroke-dasharray:none" />
      <path
         d="m 125.9163,58.4809 -0.0952,0.0476"
         id="path50"
         style="stroke-width:0.3;stroke-dasharray:none" />
    </g>
  </g>
  <g
     style="fill:none;stroke:#f2eda1;stroke-width:0.3;stroke-linecap:round;stroke-linejoin:round;stroke-dasharray:none;stroke-opacity:1"
     id="g55"
     transform="matrix(1.7311785,0,0,1.5189453,-180.6704,-68.199315)" />
  <g
     style="fill:none;stroke:#f2eda1;stroke-width:0.3;stroke-linecap:round;stroke-linejoin:round;stroke-dasharray:none;stroke-opacity:1"
     id="g61"
     transform="matrix(1.7311785,0,0,1.5189453,-180.6704,-68.199315)">
    <path
       d="m 124.024,52.828 h -15.36"
       id="path56"
       style="stroke-width:0.3;stroke-dasharray:none" />
    <path
       d="m 108.664,52.828 v 6.47"
       id="path57"
       style="stroke-width:0.3;stroke-dasharray:none" />
    <path
       d="M 124.024,55.063 V 52.828"
       id="path58"
       style="stroke-width:0.3;stroke-dasharray:none" />
    <path
       d="M 124.024,59.298 V 57.063"
       id="path59"
       style="stroke-width:0.3;stroke-dasharray:none" />
    <path
       d="m 108.664,59.298 h 15.36"
       id="path60"
       style="stroke-width:0.3;stroke-dasharray:none" />
    <path
       d="m 124.024,55.063 a 1,1 0 0 0 0,2"
       id="path61"
       style="stroke-width:0.3;stroke-dasharray:none" />
  </g>
  <g
     style="fill:none;stroke:#e0e0e0;stroke-width:0.3;stroke-linecap:round;stroke-linejoin:round;stroke-dasharray:none;stroke-opacity:1"
     id="g67"
     transform="matrix(1.7311785,0,0,1.5189453,-180.6704,-68.199315)">
    <path
       d="m 122.61727,68.676682 h 2.03859"
       id="path62"
       style="stroke:#e0e0e0;stroke-width:0.215837;stroke-dasharray:none;stroke-opacity:1;marker-start:url(#marker69)" />
    <path
       d="m 118.20993,68.659589 h 2.03859"
       id="path62-1"
       style="fill:none;stroke:#e0e0e0;stroke-width:0.215837;stroke-linecap:round;stroke-linejoin:round;stroke-dasharray:none;stroke-opacity:1;marker-end:url(#marker70)" />
    <path
       d="m 121.74738,62.334476 0.003,6.831222"
       id="path66"
       style="stroke:#e0e0e0;stroke-width:0.215837;stroke-dasharray:none;stroke-opacity:1" />
    <path
       d="m 121.10262,62.320276 0.003,6.831222"
       id="path66-6"
       style="fill:none;stroke:#e0e0e0;stroke-width:0.215837;stroke-linecap:round;stroke-linejoin:round;stroke-dasharray:none;stroke-opacity:1" />
  </g>
  <metadata
     id="metadata70">
    <rdf:RDF>
      <cc:Work
         rdf:about="">
        <dc:title>SVG Image created as RuleCheckProject-B_Cu.svg date 2026-03-06T00:25:47 </dc:title>
      </cc:Work>
    </rdf:RDF>
  </metadata>
</svg>
