<?xml version="1.0" encoding="UTF-8" standalone="no"?>
<!-- Created with Inkscape (http://www.inkscape.org/) -->

<svg
   width="376.00009"
   height="232"
   viewBox="0 0 99.483348 61.383333"
   version="1.1"
   id="svg5"
   sodipodi:docname="soldermask-expansion.svg"
   inkscape:version="1.4.3 (0d15f75, 2025-12-25)"
   xml:space="preserve"
   xmlns:inkscape="http://www.inkscape.org/namespaces/inkscape"
   xmlns:sodipodi="http://sodipodi.sourceforge.net/DTD/sodipodi-0.dtd"
   xmlns="http://www.w3.org/2000/svg"
   xmlns:svg="http://www.w3.org/2000/svg"><sodipodi:namedview
     id="namedview7"
     pagecolor="#ffffff"
     bordercolor="#666666"
     borderopacity="1.0"
     inkscape:showpageshadow="2"
     inkscape:pageopacity="0.0"
     inkscape:pagecheckerboard="0"
     inkscape:deskcolor="#d1d1d1"
     inkscape:document-units="px"
     showgrid="true"
     inkscape:zoom="1.7898128"
     inkscape:cx="196.94798"
     inkscape:cy="127.94635"
     inkscape:window-width="1360"
     inkscape:window-height="663"
     inkscape:window-x="0"
     inkscape:window-y="34"
     inkscape:window-maximized="0"
     inkscape:current-layer="layer11"
     showguides="true"
     inkscape:lockguides="false"><inkscape:grid
       type="xygrid"
       id="grid1049"
       empcolor="#3f3fff"
       empopacity="0.25098039"
       color="#ceceff"
       opacity="0.1254902"
       empspacing="2"
       spacingx="0.13229167"
       spacingy="0.13229167"
       originx="95.249998"
       originy="-14.816671"
       units="px" /><sodipodi:guide
       position="44.979163,13.229166"
       orientation="0,-1"
       id="guide41783"
       inkscape:locked="false" /><sodipodi:guide
       position="38.099997,59.266667"
       orientation="1,0"
       id="guide53789"
       inkscape:locked="false" /><sodipodi:guide
       position="73.024997,34.395833"
       orientation="1,0"
       id="guide2652"
       inkscape:locked="false" /><sodipodi:guide
       position="61.619087,31.742055"
       orientation="0,-1"
       id="guide2654"
       inkscape:locked="false" /><sodipodi:guide
       position="89.958327,46.302086"
       orientation="1,0"
       id="guide79210"
       inkscape:locked="false" /></sodipodi:namedview><defs
     id="defs2"><marker
   style="overflow:visible"
   id="TriangleStart"
   refX="0"
   refY="0"
   orient="auto-start-reverse"
   inkscape:stockid="TriangleStart"
   markerWidth="5.3244081"
   markerHeight="6.155385"
   viewBox="0 0 5.3244081 6.1553851"
   inkscape:isstock="true"
   inkscape:collect="always"
   preserveAspectRatio="xMidYMid"><path
     transform="scale(0.5)"
     style="fill:context-stroke;fill-rule:evenodd;stroke:context-stroke;stroke-width:1pt"
     d="M 5.77,0 -2.88,5 V -5 Z"
     id="path135" /></marker>
        
    </defs><g
     inkscape:groupmode="layer"
     id="layer2"
     inkscape:label="copper"
     style="display:inline"
     transform="translate(-12.699954,-4.2333323)"><path
       id="rect238"
       style="color:#ded3dd;display:inline;fill:#f29100;fill-opacity:1;stroke-width:1;stroke-linejoin:round;paint-order:stroke fill markers"
       d="m 44.25417,22.754165 c -3.657021,0 -6.683385,3.026706 -6.683385,6.683829 v 8.85734 c 0,3.657124 3.026364,6.68383 6.683385,6.68383 h 13.091846 c 3.657021,0 6.683384,-3.026706 6.683384,-6.68383 v -1.78387 h 20.761744 c 0.185267,-0.280768 0.553589,-0.451552 0.933804,-0.555522 v -0.890385 c -0.540491,-0.147783 -1.057828,-0.430492 -1.057828,-0.972033 0,-0.541708 0.517366,-0.824227 1.057828,-0.972034 v -0.890902 c -0.540491,-0.147782 -1.057828,-0.430492 -1.057828,-0.972033 0,-0.01277 4.65e-4,-0.02524 0.001,-0.03772 H 64.0294 v -1.782837 c 0,-3.657123 -3.026363,-6.683829 -6.683384,-6.683829 z" /></g><g
     inkscape:groupmode="layer"
     id="layer11"
     inkscape:label="PCB"><path
       id="rect6810"
       style="display:inline;opacity:1;fill:#42b8eb;fill-opacity:1;stroke:#42b8eb;stroke-width:0.264583;stroke-linejoin:round;stroke-dasharray:none;stroke-opacity:1;paint-order:stroke fill markers"
       d="M 8.995833,5.2916664 V 26.052671 c 0.540676,0.14776 1.058333,0.430643 1.058333,0.972551 0,0.541702 -0.517675,0.824289 -1.058333,0.972033 v 0.890385 c 0.540676,0.147761 1.058333,0.430639 1.058333,0.972551 0,0.541702 -0.517675,0.824286 -1.058333,0.972033 v 0.890385 c 0.540662,0.147762 1.058333,0.430656 1.058333,0.972551 0,0.541714 -0.517662,0.824289 -1.058333,0.972033 v 20.307804 h 45.934661 c 0.147763,-0.540664 0.430141,-1.058334 0.972034,-1.058334 0.541704,0 0.824287,0.517674 0.972034,1.058334 h 0.890385 c 0.147759,-0.540679 0.43064,-1.058334 0.97255,-1.058334 0.541703,0 0.824287,0.517674 0.972034,1.058334 h 0.890385 c 0.147758,-0.540679 0.430643,-1.058334 0.97255,-1.058334 0.541703,0 0.824287,0.517674 0.972034,1.058334 h 10.480496 c 0.178454,-16.56809 0.04692,-31.959043 0,-48.6833306 H 27.694949 c -0.147747,0.5406603 -0.43033,1.0583333 -0.972034,1.0583333 -0.541907,0 -0.824791,-0.517655 -0.97255,-1.0583333 H 24.85998 c -0.147747,0.5406603 -0.430329,1.0583333 -0.972034,1.0583333 -0.541898,0 -0.82427,-0.517669 -0.972033,-1.0583333 h -0.890385 c -0.147744,0.5406733 -0.430318,1.0583333 -0.972034,1.0583333 -0.541894,0 -0.824788,-0.517669 -0.97255,-1.0583333 z M 28.674217,13.77797 h 18.851562 c 5.266034,0 9.624218,4.32381 9.624218,9.548253 v 12.652974 c 0,5.224439 -4.358184,9.54877 -9.624218,9.54877 H 28.674217 c -5.266029,0 -9.624218,-4.324331 -9.624218,-9.54877 V 23.326223 c 0,-5.224443 4.358189,-9.548253 9.624218,-9.548253 z"
       sodipodi:nodetypes="ccsccsccscccsccsccsccccsccsccsccsssssssss" /><rect
       style="fill:#42b8eb;stroke:#1a81c4;stroke-width:5.09823;stroke-linecap:square;stroke-linejoin:miter;stroke-dasharray:none;stroke-opacity:1"
       id="rect1"
       width="18.620399"
       height="0.14857996"
       x="59.569176"
       y="29.53545" /><path
       style="opacity:1;fill:#1a1a1a;fill-opacity:1;stroke:#ded3dd;stroke-width:0.52916664;paint-order:markers stroke fill;stroke-dasharray:none;stroke-opacity:1"
       d="M 38.099999,13.75833 H 91.016667"
       id="path69353" /><path
       style="opacity:1;fill:#1a1a1a;fill-opacity:1;stroke:#ded3dd;stroke-width:0.52916664;paint-order:markers stroke fill;stroke-dasharray:none;stroke-opacity:1"
       d="M 38.099999,18.52083 H 91.016667"
       id="path69355" /><rect
       style="fill:#1a81c4;fill-opacity:1;stroke:#1a81c4;stroke-width:5.09823;stroke-linecap:round;stroke-linejoin:round;stroke-dasharray:none;stroke-opacity:1"
       id="rect1-6"
       width="4.9265413"
       height="0.14857996"
       x="78.264999"
       y="29.527262" /></g><g
     inkscape:groupmode="layer"
     id="layer1"
     inkscape:label="Arrows"
     transform="translate(-12.699954,-4.2333323)"
     style="fill:#e0e0e0;fill-opacity:1;stroke:#ded3dd;stroke-opacity:1"><path
       style="opacity:0.8;fill:#e0e0e0;fill-opacity:1;stroke:#ded3dd;stroke-width:0.529167;stroke-dasharray:none;stroke-opacity:1;marker-end:url(#TriangleStart);paint-order:markers stroke fill"
       d="M 102.58913,9.6994918 V 16.049492"
       id="path69411" /><path
       style="opacity:0.8;fill:#e0e0e0;fill-opacity:1;stroke:#ded3dd;stroke-width:0.529167;stroke-dasharray:none;stroke-opacity:1;marker-end:url(#TriangleStart);paint-order:markers stroke fill"
       d="m 102.65829,31.058391 v -6.35"
       id="path69443" /></g></svg>
