<svg width="48" height="48" viewBox="0 0 48 48" fill="none" xmlns="http://www.w3.org/2000/svg">
<rect width="48" height="48" rx="8" fill="#C4241D"/>
<path d="M15.4643 26.0556V29.6527H5V26.5084L12.0936 19.0124L13.6783 20.9241H5.15093V17.327H15.3636V20.4713L8.24492 27.9925L7.23875 26.0556H15.4643ZM22.6259 29.8791C21.3848 29.8791 20.2948 29.6192 19.3558 29.0993C18.4334 28.5794 17.7123 27.8416 17.1924 26.8857C16.6726 25.9298 16.4127 24.7979 16.4127 23.4899C16.4127 22.2321 16.6726 21.117 17.1924 20.1443C17.7123 19.1716 18.4334 18.4087 19.3558 17.8553C20.2948 17.285 21.3848 17 22.6259 17C23.9171 17 25.0239 17.2935 25.9462 17.8804C26.8685 18.4673 27.5813 19.2471 28.0844 20.2198C28.5875 21.1756 28.839 22.249 28.839 23.4396C28.839 23.7079 28.8305 23.951 28.8139 24.169C28.797 24.3871 28.7719 24.5632 28.7384 24.6973H19.4564V21.9303H25.5941L25.2419 22.8358C25.2419 22.0477 25.0322 21.402 24.6131 20.8989C24.1938 20.3959 23.5481 20.1443 22.6762 20.1443C21.8712 20.1443 21.2339 20.379 20.7644 20.8486C20.2948 21.3182 20.0601 21.9471 20.0601 22.7352V24.1187C20.0601 24.974 20.3116 25.6363 20.8147 26.1059C21.3178 26.5587 22.0221 26.7851 22.9277 26.7851C23.6487 26.7851 24.2189 26.651 24.6382 26.3826C25.0742 26.0976 25.4347 25.737 25.7199 25.301L28.4365 26.7599C27.9166 27.7158 27.1537 28.4788 26.1475 29.049C25.1413 29.6024 23.9674 29.8791 22.6259 29.8791Z" fill="white"/>
<path d="M36.3105 17C39.9297 17.0002 42.8633 19.9345 42.8633 23.5537C42.8631 27.1728 39.9296 30.1063 36.3105 30.1064C32.6913 30.1064 29.757 27.1729 29.7568 23.5537C29.7568 19.9344 32.6912 17 36.3105 17ZM36.3096 21.1035C34.9569 21.1035 33.8604 22.2001 33.8604 23.5527C33.8604 24.9054 34.9569 26.0019 36.3096 26.002C37.6623 26.002 38.7588 24.9054 38.7588 23.5527C38.7588 22.2001 37.6622 21.1035 36.3096 21.1035Z" fill="white"/>
</svg>
