<svg width="16" height="16" viewBox="0 0 16 16" fill="none" xmlns="http://www.w3.org/2000/svg">
<g clip-path="url(#clip0_379_893)">
<path d="M13.3333 0H2.66667C1.19391 0 0 1.19391 0 2.66667V13.3333C0 14.8061 1.19391 16 2.66667 16H13.3333C14.8061 16 16 14.8061 16 13.3333V2.66667C16 1.19391 14.8061 0 13.3333 0Z" fill="#C4241D"/>
<path d="M5.15509 8.68553V9.88456H1.66699V8.83646L4.03153 6.33779L4.55976 6.97503H1.7173V5.77599H5.12153V6.82409L2.74863 9.33116L2.41324 8.68553H5.15509ZM7.54229 9.96003C7.12859 9.96003 6.76526 9.87339 6.45226 9.70009C6.14479 9.52679 5.90443 9.28086 5.73113 8.96223C5.55786 8.64359 5.47123 8.26629 5.47123 7.83029C5.47123 7.41103 5.55786 7.03933 5.73113 6.71509C5.90443 6.39086 6.14479 6.13656 6.45226 5.95209C6.76526 5.76199 7.12859 5.66699 7.54229 5.66699C7.97269 5.66699 8.34162 5.76483 8.64906 5.96046C8.95649 6.15609 9.19409 6.41603 9.36179 6.74026C9.52949 7.05886 9.61333 7.41666 9.61333 7.81353C9.61333 7.90296 9.61049 7.98399 9.60496 8.05666C9.59933 8.12936 9.59096 8.18806 9.57979 8.23276H6.48579V7.31043H8.53169L8.41429 7.61226C8.41429 7.34956 8.34439 7.13433 8.20469 6.96663C8.06493 6.79896 7.84969 6.71509 7.55906 6.71509C7.29073 6.71509 7.07829 6.79333 6.92179 6.94986C6.76526 7.10639 6.68703 7.31603 6.68703 7.57873V8.03989C6.68703 8.32499 6.77086 8.54576 6.93856 8.70229C7.10626 8.85323 7.34103 8.92869 7.64289 8.92869C7.88323 8.92869 8.07329 8.88399 8.21306 8.79453C8.35839 8.69953 8.47856 8.57933 8.57363 8.43399L9.47916 8.92029C9.30586 9.23893 9.05156 9.49326 8.71616 9.68333C8.38076 9.86779 7.98946 9.96003 7.54229 9.96003Z" fill="white"/>
<path d="M12.1035 5.66699C13.3099 5.66706 14.2878 6.64516 14.2878 7.85156C14.2877 9.05793 13.3099 10.0358 12.1035 10.0358C10.8971 10.0358 9.91901 9.05796 9.91895 7.85156C9.91895 6.64513 10.8971 5.66699 12.1035 5.66699ZM12.1032 7.03483C11.6523 7.03483 11.2868 7.40036 11.2868 7.85123C11.2868 8.30213 11.6523 8.66763 12.1032 8.66766C12.5541 8.66766 12.9196 8.30213 12.9196 7.85123C12.9196 7.40036 12.5541 7.03483 12.1032 7.03483Z" fill="white"/>
</g>
<defs>
<clipPath id="clip0_379_893">
<rect width="16" height="16" fill="white"/>
</clipPath>
</defs>
</svg>
