<svg width="24" height="24" viewBox="0 0 24 24" fill="none" xmlns="http://www.w3.org/2000/svg">
<path fill-rule="evenodd" clip-rule="evenodd" d="M21.6562 8.35845C21.6562 8.12918 21.6563 7.89989 21.6549 7.67061C21.6538 7.47746 21.6516 7.28436 21.6463 7.0913C21.635 6.67053 21.6101 6.24615 21.5353 5.83007C21.4594 5.40798 21.3355 5.01515 21.1402 4.63164C20.9482 4.2547 20.6974 3.90977 20.3981 3.61073C20.099 3.31169 19.7539 3.06105 19.3769 2.86917C18.9929 2.67382 18.5997 2.54993 18.1771 2.47406C17.761 2.39934 17.3365 2.37457 16.9157 2.3632C16.7225 2.35798 16.5294 2.35577 16.3361 2.35458C16.1067 2.35317 15.8773 2.35329 15.6479 2.35329L12.9843 2.34375H10.9921L8.37565 2.35329C8.1458 2.35329 7.91595 2.35317 7.6861 2.35458C7.49246 2.35577 7.29892 2.35798 7.10535 2.3632C6.68359 2.37457 6.25813 2.39937 5.84102 2.47418C5.41791 2.55002 5.02407 2.67387 4.63965 2.86908C4.26177 3.06098 3.916 3.31164 3.61619 3.61073C3.31642 3.90974 3.06515 4.2546 2.8728 4.63148C2.67696 5.01517 2.55279 5.40824 2.47671 5.83056C2.4018 6.24648 2.37698 6.67072 2.36557 7.0913C2.36037 7.28438 2.35812 7.47748 2.35695 7.67061C2.35554 7.89992 2.34375 8.18475 2.34375 8.41404L2.34382 10.9943L2.34375 13.0078L2.35566 15.6428C2.35566 15.8724 2.35556 16.102 2.35695 16.3316C2.35812 16.525 2.36037 16.7184 2.36559 16.9117C2.37698 17.333 2.40185 17.758 2.47683 18.1746C2.55288 18.5973 2.67703 18.9907 2.87271 19.3747C3.06508 19.7522 3.3164 20.0975 3.61619 20.397C3.91597 20.6965 4.26165 20.9474 4.63946 21.1396C5.02411 21.3352 5.41814 21.4593 5.84151 21.5352C6.25844 21.6101 6.68376 21.6349 7.10535 21.6462C7.29892 21.6515 7.49249 21.6537 7.68612 21.6549C7.91597 21.6563 8.1458 21.6562 8.37565 21.6562L11.0158 21.6562H13.0129L15.6479 21.6562C15.8773 21.6562 16.1067 21.6563 16.3361 21.6549C16.5294 21.6537 16.7225 21.6515 16.9157 21.6462C17.3367 21.6349 17.7613 21.61 18.1776 21.5351C18.5999 21.4592 18.993 21.3352 19.3767 21.1397C19.7538 20.9475 20.0989 20.6965 20.3981 20.397C20.6973 20.0976 20.9481 19.7523 21.1401 19.3749C21.3355 18.9907 21.4595 18.5971 21.5354 18.1742C21.6102 17.7577 21.635 17.3328 21.6463 16.9117C21.6516 16.7183 21.6538 16.525 21.6549 16.3316C21.6564 16.102 21.6562 15.8724 21.6562 15.6428C21.6562 15.6428 21.6561 13.0543 21.6561 13.0078V10.9922C21.6561 10.9578 21.6562 8.35845 21.6562 8.35845" fill="#1C2021"/>
<path d="M8.85085 13.0185V14.4657H4.64062V13.2006L7.49467 10.1847L8.13228 10.9538H4.70135V9.50657H8.81037V10.7717L5.9462 13.7978L5.54137 13.0185H8.85085ZM11.7323 14.5568C11.233 14.5568 10.7944 14.4523 10.4166 14.2431C10.0455 14.0339 9.75532 13.737 9.54618 13.3525C9.33701 12.9679 9.23243 12.5124 9.23243 11.9862C9.23243 11.4801 9.33701 11.0314 9.54618 10.6401C9.75532 10.2487 10.0455 9.94176 10.4166 9.71911C10.7944 9.48968 11.233 9.375 11.7323 9.375C12.2518 9.375 12.6971 9.49309 13.0682 9.72923C13.4393 9.96536 13.7261 10.2791 13.9285 10.6705C14.1309 11.055 14.2321 11.4869 14.2321 11.9659C14.2321 12.0739 14.2287 12.1717 14.222 12.2594C14.2152 12.3471 14.2051 12.418 14.1916 12.472H10.4571V11.3587H12.9265L12.7848 11.723C12.7848 11.4059 12.7005 11.1461 12.5318 10.9437C12.3631 10.7413 12.1033 10.6401 11.7525 10.6401C11.4287 10.6401 11.1722 10.7345 10.9833 10.9235C10.7944 11.1124 10.7 11.3654 10.7 11.6825V12.2392C10.7 12.5833 10.8012 12.8498 11.0036 13.0387C11.206 13.2209 11.4894 13.312 11.8537 13.312C12.1438 13.312 12.3732 13.258 12.5419 13.15C12.7173 13.0354 12.8624 12.8903 12.9771 12.7148L14.0702 13.3019C13.861 13.6864 13.554 13.9934 13.1492 14.2228C12.7444 14.4455 12.272 14.5568 11.7323 14.5568Z" fill="white"/>
<path d="M17.2383 9.375C18.6945 9.375 19.875 10.5555 19.875 12.0117C19.875 13.4679 18.6945 14.6484 17.2383 14.6484C15.7821 14.6484 14.6016 13.4679 14.6016 12.0117C14.6016 10.5555 15.7821 9.375 17.2383 9.375ZM17.2383 11.0264C16.694 11.0264 16.2529 11.4675 16.2529 12.0117C16.2531 12.5558 16.6942 12.9971 17.2383 12.9971C17.7822 12.9969 18.2234 12.5556 18.2236 12.0117C18.2236 11.4676 17.7823 11.0266 17.2383 11.0264Z" fill="white"/>
</svg>
