<svg width="32" height="32" viewBox="0 0 32 32" fill="none" xmlns="http://www.w3.org/2000/svg">
<g clip-path="url(#clip0_379_874)">
<path d="M26.6667 0H5.33333C2.38781 0 0 2.38781 0 5.33333V26.6667C0 29.6122 2.38781 32 5.33333 32H26.6667C29.6122 32 32 29.6122 32 26.6667V5.33333C32 2.38781 29.6122 0 26.6667 0Z" fill="#C4241D"/>
<path d="M10.3092 17.3701V19.7681H3.33301V17.6719L8.06207 12.6746L9.11854 13.9491H3.43363V11.551H10.2421V13.6472L5.49629 18.6613L4.82551 17.3701H10.3092ZM15.0836 19.9191C14.2562 19.9191 13.5295 19.7458 12.9035 19.3992C12.2886 19.0526 11.8079 18.5607 11.4613 17.9235C11.1147 17.2862 10.9415 16.5316 10.9415 15.6596C10.9415 14.8211 11.1147 14.0777 11.4613 13.4292C11.8079 12.7807 12.2886 12.2721 12.9035 11.9032C13.5295 11.523 14.2562 11.333 15.0836 11.333C15.9444 11.333 16.6823 11.5287 17.2971 11.9199C17.912 12.3112 18.3872 12.8311 18.7226 13.4795C19.058 14.1167 19.2257 14.8323 19.2257 15.6261C19.2257 15.8049 19.22 15.967 19.2089 16.1123C19.1977 16.2577 19.1809 16.3751 19.1586 16.4645H12.9706V14.6199H17.0624L16.8276 15.2235C16.8276 14.6981 16.6878 14.2677 16.4084 13.9323C16.1289 13.5969 15.6984 13.4292 15.1171 13.4292C14.5805 13.4292 14.1556 13.5857 13.8426 13.8987C13.5295 14.2118 13.3731 14.6311 13.3731 15.1565V16.0788C13.3731 16.649 13.5407 17.0905 13.8761 17.4036C14.2115 17.7055 14.6811 17.8564 15.2848 17.8564C15.7655 17.8564 16.1456 17.767 16.4251 17.5881C16.7158 17.3981 16.9561 17.1577 17.1463 16.867L18.9573 17.8396C18.6107 18.4769 18.1021 18.9855 17.4313 19.3657C16.7605 19.7346 15.9779 19.9191 15.0836 19.9191Z" fill="white"/>
<path d="M24.207 11.333C26.6198 11.3331 28.5756 13.2893 28.5756 15.7021C28.5754 18.1149 26.6198 20.0705 24.207 20.0706C21.7942 20.0706 19.838 18.1149 19.8379 15.7021C19.8379 13.2893 21.7942 11.333 24.207 11.333ZM24.2064 14.0687C23.3046 14.0687 22.5736 14.7997 22.5736 15.7015C22.5736 16.6033 23.3046 17.3343 24.2064 17.3343C25.1082 17.3343 25.8392 16.6033 25.8392 15.7015C25.8392 14.7997 25.1082 14.0687 24.2064 14.0687Z" fill="white"/>
</g>
<defs>
<clipPath id="clip0_379_874">
<rect width="32" height="32" fill="white"/>
</clipPath>
</defs>
</svg>
