<svg width="16" height="16" viewBox="0 0 16 16" fill="none" xmlns="http://www.w3.org/2000/svg">
<path fill-rule="evenodd" clip-rule="evenodd" d="M14.4375 5.5723C14.4375 5.41945 14.4376 5.2666 14.4366 5.11374C14.4359 4.98497 14.4344 4.85624 14.4309 4.72754C14.4233 4.44702 14.4068 4.1641 14.3569 3.88671C14.3063 3.60532 14.2237 3.34343 14.0935 3.08776C13.9655 2.83646 13.7983 2.60651 13.5988 2.40715C13.3993 2.20779 13.1693 2.0407 12.9179 1.91278C12.662 1.78255 12.3998 1.69995 12.1181 1.64937C11.8407 1.59956 11.5577 1.58305 11.2772 1.57547C11.1484 1.57198 11.0196 1.57052 10.8907 1.56972C10.7378 1.56878 10.5849 1.56886 10.4319 1.56886L8.6562 1.5625H7.32808L5.58377 1.56886C5.43053 1.56886 5.2773 1.56878 5.12407 1.56972C4.99497 1.57052 4.86594 1.57198 4.7369 1.57547C4.45573 1.58305 4.17209 1.59958 3.89401 1.64945C3.61194 1.70002 3.34938 1.78258 3.0931 1.91272C2.84118 2.04065 2.61066 2.20776 2.41079 2.40715C2.21095 2.6065 2.04343 2.8364 1.9152 3.08765C1.78464 3.34345 1.70186 3.60549 1.65114 3.88704C1.6012 4.16432 1.58466 4.44715 1.57705 4.72754C1.57358 4.85625 1.57208 4.98499 1.5713 5.11374C1.57036 5.26661 1.5625 5.4565 1.5625 5.60936L1.56255 7.32951L1.5625 8.67185L1.57044 10.4285C1.57044 10.5816 1.57037 10.7347 1.5713 10.8877C1.57208 11.0167 1.57358 11.1456 1.57706 11.2745C1.58466 11.5553 1.60123 11.8387 1.65122 12.1164C1.70192 12.3982 1.78469 12.6605 1.91514 12.9165C2.04339 13.1681 2.21093 13.3984 2.41079 13.598C2.61065 13.7976 2.8411 13.965 3.09297 14.0931C3.34941 14.2235 3.61209 14.3062 3.89434 14.3568C4.17229 14.4067 4.45584 14.4232 4.7369 14.4308C4.86594 14.4343 4.99499 14.4358 5.12408 14.4366C5.27732 14.4375 5.43053 14.4375 5.58377 14.4375L7.34385 14.4375H8.67526L10.4319 14.4374C10.5849 14.4374 10.7378 14.4375 10.8907 14.4366C11.0196 14.4358 11.1484 14.4343 11.2772 14.4308C11.5578 14.4232 11.8409 14.4067 12.1184 14.3568C12.4 14.3061 12.662 14.2234 12.9178 14.0931C13.1692 13.965 13.3993 13.7977 13.5988 13.598C13.7982 13.3984 13.9654 13.1682 14.0934 12.9166C14.2237 12.6604 14.3063 12.3981 14.3569 12.1161C14.4068 11.8384 14.4233 11.5552 14.4309 11.2745C14.4344 11.1456 14.4359 11.0167 14.4366 10.8877C14.4376 10.7347 14.4375 10.5816 14.4375 10.4285C14.4375 10.4285 14.4374 8.70286 14.4374 8.67185V7.3281C14.4374 7.3052 14.4375 5.5723 14.4375 5.5723" fill="#C4241D"/>
<path d="M5.90057 8.67898V9.64383H3.09375V8.80043L4.99645 6.78977L5.42152 7.30256H3.13423V6.33771H5.87358V7.18111L3.96413 9.19851L3.69425 8.67898H5.90057ZM7.82152 9.70455C7.48864 9.70455 7.19627 9.63484 6.94439 9.49539C6.69698 9.35594 6.50355 9.15803 6.36412 8.90164C6.22468 8.64525 6.15496 8.34162 6.15496 7.99077C6.15496 7.65341 6.22468 7.3543 6.36412 7.0934C6.50355 6.83249 6.69698 6.62784 6.94439 6.4794C7.19627 6.32646 7.48864 6.25 7.82152 6.25C8.16786 6.25 8.46474 6.32873 8.71214 6.48615C8.95952 6.64357 9.15071 6.85274 9.28565 7.11364C9.42059 7.37003 9.48807 7.65792 9.48807 7.97728C9.48807 8.04926 9.48579 8.11446 9.48132 8.17294C9.47681 8.23143 9.47006 8.27866 9.46108 8.31463H6.97138V7.57245H8.61768L8.52322 7.81534C8.52322 7.60394 8.46697 7.43075 8.35454 7.29581C8.24208 7.16087 8.06889 7.0934 7.83501 7.0934C7.6191 7.0934 7.44815 7.15636 7.32223 7.28232C7.19627 7.40828 7.13331 7.57696 7.13331 7.78835V8.15945C7.13331 8.38885 7.20078 8.56652 7.33572 8.69248C7.47067 8.81392 7.65959 8.87465 7.90248 8.87465C8.09588 8.87465 8.24883 8.83868 8.36129 8.76669C8.47823 8.69024 8.57493 8.59351 8.65142 8.47657L9.38011 8.8679C9.24066 9.12429 9.03601 9.32895 8.76612 9.48189C8.49623 9.63033 8.18135 9.70455 7.82152 9.70455Z" fill="white"/>
<path d="M11.4922 6.25C12.463 6.25 13.25 7.037 13.25 8.00781C13.25 8.97863 12.463 9.76562 11.4922 9.76562C10.5214 9.76562 9.73438 8.97863 9.73438 8.00781C9.73438 7.037 10.5214 6.25 11.4922 6.25ZM11.4922 7.35059C11.1294 7.35059 10.835 7.645 10.835 8.00781C10.835 8.37064 11.1294 8.66503 11.4922 8.66504C11.855 8.66504 12.1494 8.37064 12.1494 8.00781C12.1494 7.64499 11.855 7.35059 11.4922 7.35059Z" fill="white"/>
</svg>
