<svg width="24" height="24" viewBox="0 0 24 24" fill="none" xmlns="http://www.w3.org/2000/svg">
<g clip-path="url(#clip0_379_869)">
<path d="M20 0H4C1.79086 0 0 1.79086 0 4V20C0 22.2091 1.79086 24 4 24H20C22.2091 24 24 22.2091 24 20V4C24 1.79086 22.2091 0 20 0Z" fill="#C4241D"/>
<path d="M7.73215 13.0278V14.8264H2.5V13.2542L6.0468 9.5062L6.83915 10.4621H2.57546V8.6635H7.6818V10.2357L4.12246 13.9963L3.61937 13.0278H7.73215ZM11.313 14.9396C10.6924 14.9396 10.1474 14.8096 9.6779 14.5497C9.2167 14.2897 8.85615 13.9208 8.5962 13.4429C8.3363 12.9649 8.20635 12.399 8.20635 11.745C8.20635 11.1161 8.3363 10.5585 8.5962 10.0722C8.85615 9.5858 9.2167 9.20435 9.6779 8.92765C10.1474 8.6425 10.6924 8.5 11.313 8.5C11.9586 8.5 12.5119 8.64675 12.9731 8.9402C13.4342 9.23365 13.7907 9.62355 14.0422 10.1099C14.2938 10.5878 14.4195 11.1245 14.4195 11.7198C14.4195 11.8539 14.4152 11.9755 14.4069 12.0845C14.3985 12.1936 14.3859 12.2816 14.3692 12.3486H9.7282V10.9651H12.7971L12.6209 11.4179C12.6209 11.0239 12.5161 10.701 12.3066 10.4494C12.0969 10.1979 11.7741 10.0722 11.3381 10.0722C10.9356 10.0722 10.617 10.1895 10.3822 10.4243C10.1474 10.6591 10.0301 10.9736 10.0301 11.3676V12.0594C10.0301 12.487 10.1558 12.8181 10.4073 13.0529C10.6589 13.2793 11.0111 13.3926 11.4639 13.3926C11.8244 13.3926 12.1095 13.3255 12.3191 13.1913C12.5371 13.0488 12.7174 12.8685 12.86 12.6505L14.2183 13.3799C13.9583 13.8579 13.5768 14.2394 13.0737 14.5245C12.5706 14.8012 11.9837 14.9396 11.313 14.9396Z" fill="white"/>
<path d="M18.1548 8.5C19.9644 8.5001 21.4312 9.96725 21.4312 11.7768C21.4311 13.5864 19.9643 15.0531 18.1548 15.0532C16.3452 15.0532 14.878 13.5864 14.8779 11.7768C14.8779 9.9672 16.3451 8.5 18.1548 8.5ZM18.1543 10.5518C17.478 10.5518 16.9297 11.1001 16.9297 11.7764C16.9297 12.4527 17.478 13.001 18.1543 13.001C18.8307 13.001 19.3789 12.4527 19.3789 11.7764C19.3789 11.1001 18.8306 10.5518 18.1543 10.5518Z" fill="white"/>
</g>
<defs>
<clipPath id="clip0_379_869">
<rect width="24" height="24" fill="white"/>
</clipPath>
</defs>
</svg>
