<svg width="32" height="32" viewBox="0 0 32 32" fill="none" xmlns="http://www.w3.org/2000/svg">
<path fill-rule="evenodd" clip-rule="evenodd" d="M28.875 11.1446C28.875 10.8389 28.8751 10.5332 28.8732 10.2275C28.8717 9.96994 28.8687 9.71248 28.8617 9.45507C28.8466 8.89404 28.8135 8.3282 28.7137 7.77342C28.6126 7.21064 28.4473 6.68686 28.1869 6.17552C27.9309 5.67293 27.5965 5.21302 27.1975 4.81431C26.7986 4.41559 26.3386 4.0814 25.8358 3.82556C25.3239 3.56509 24.7996 3.39991 24.2362 3.29875C23.6813 3.19912 23.1154 3.16609 22.5543 3.15094C22.2967 3.14397 22.0391 3.14103 21.7815 3.13944C21.4756 3.13756 21.1697 3.13772 20.8639 3.13772L17.3124 3.125H14.6562L11.1675 3.13772C10.8611 3.13772 10.5546 3.13756 10.2481 3.13944C9.98995 3.14103 9.73189 3.14397 9.4738 3.15094C8.91146 3.16609 8.34418 3.19916 7.78803 3.29891C7.22388 3.40003 6.69875 3.56515 6.1862 3.82543C5.68236 4.08131 5.22133 4.41553 4.82158 4.81431C4.4219 5.21299 4.08687 5.6728 3.8304 6.1753C3.56928 6.68689 3.40372 7.21099 3.30228 7.77408C3.20241 8.32864 3.16931 8.89429 3.15409 9.45507C3.14716 9.71251 3.14416 9.96998 3.14259 10.2275C3.14072 10.5332 3.125 10.913 3.125 11.2187L3.12509 14.659L3.125 17.3437L3.14087 20.8571C3.14087 21.1632 3.14075 21.4693 3.14259 21.7755C3.14416 22.0333 3.14716 22.2911 3.15412 22.5489C3.16931 23.1107 3.20247 23.6773 3.30244 24.2329C3.40384 24.7964 3.56937 25.3209 3.83028 25.8329C4.08677 26.3362 4.42187 26.7967 4.82158 27.196C5.2213 27.5953 5.6822 27.9299 6.18595 28.1861C6.69882 28.4469 7.22419 28.6123 7.78868 28.7136C8.34459 28.8134 8.91168 28.8465 9.4738 28.8617C9.73189 28.8686 9.98998 28.8716 10.2482 28.8732C10.5546 28.875 10.8611 28.8749 11.1675 28.8749L14.6877 28.875H17.3505L20.8639 28.8749C21.1697 28.8749 21.4756 28.875 21.7815 28.8732C22.0391 28.8716 22.2967 28.8686 22.5543 28.8617C23.1156 28.8465 23.6818 28.8133 24.2368 28.7135C24.7999 28.6122 25.324 28.4469 25.8356 28.1862C26.3385 27.93 26.7986 27.5953 27.1975 27.196C27.5964 26.7968 27.9308 26.3364 28.1868 25.8331C28.4474 25.3209 28.6126 24.7961 28.7139 24.2322C28.8136 23.6769 28.8466 23.1105 28.8618 22.5489C28.8687 22.2911 28.8717 22.0333 28.8732 21.7755C28.8752 21.4693 28.875 21.1632 28.875 20.8571C28.875 20.8571 28.8748 17.4057 28.8748 17.3437V14.6562C28.8748 14.6104 28.875 11.1446 28.875 11.1446" fill="#C4241D"/>
<path d="M11.8011 17.358V19.2877H6.1875V17.6009L9.9929 13.5795L10.843 14.6051H6.26847V12.6754H11.7472V14.3622L7.92827 18.397L7.38849 17.358H11.8011ZM15.643 19.4091C14.9773 19.4091 14.3925 19.2697 13.8888 18.9908C13.394 18.7119 13.0071 18.3161 12.7282 17.8033C12.4494 17.2905 12.3099 16.6832 12.3099 15.9815C12.3099 15.3068 12.4494 14.7086 12.7282 14.1868C13.0071 13.665 13.394 13.2557 13.8888 12.9588C14.3925 12.6529 14.9773 12.5 15.643 12.5C16.3357 12.5 16.9295 12.6575 17.4243 12.9723C17.919 13.2871 18.3014 13.7055 18.5713 14.2273C18.8412 14.7401 18.9761 15.3158 18.9761 15.9546C18.9761 16.0985 18.9716 16.2289 18.9626 16.3459C18.9536 16.4629 18.9401 16.5573 18.9222 16.6293H13.9428V15.1449H17.2354L17.0464 15.6307C17.0464 15.2079 16.9339 14.8615 16.7091 14.5916C16.4842 14.3217 16.1378 14.1868 15.67 14.1868C15.2382 14.1868 14.8963 14.3127 14.6445 14.5646C14.3925 14.8166 14.2666 15.1539 14.2666 15.5767V16.3189C14.2666 16.7777 14.4016 17.133 14.6714 17.385C14.9413 17.6278 15.3192 17.7493 15.805 17.7493C16.1918 17.7493 16.4977 17.6774 16.7226 17.5334C16.9565 17.3805 17.1499 17.187 17.3028 16.9531L18.7602 17.7358C18.4813 18.2486 18.072 18.6579 17.5322 18.9638C16.9925 19.2607 16.3627 19.4091 15.643 19.4091Z" fill="white"/>
<path d="M22.9844 12.5C24.926 12.5 26.5 14.074 26.5 16.0156C26.5 17.9573 24.926 19.5312 22.9844 19.5312C21.0427 19.5312 19.4688 17.9573 19.4688 16.0156C19.4688 14.074 21.0428 12.5 22.9844 12.5ZM22.9834 14.7002C22.2577 14.7002 21.6689 15.289 21.6689 16.0146C21.6691 16.7402 22.2578 17.3281 22.9834 17.3281C23.7089 17.328 24.2968 16.7401 24.2969 16.0146C24.2969 15.2891 23.709 14.7003 22.9834 14.7002Z" fill="white"/>
</svg>
