<svg width="180" height="180" viewBox="0 0 180 180" fill="none" xmlns="http://www.w3.org/2000/svg">
<path fill-rule="evenodd" clip-rule="evenodd" d="M162.422 62.6884C162.422 60.9689 162.423 59.2492 162.412 57.5295C162.403 56.0809 162.387 54.6327 162.347 53.1848C162.262 50.029 162.076 46.8461 161.515 43.7255C160.946 40.5599 160.016 37.6136 158.551 34.7373C157.111 31.9102 155.23 29.3233 152.986 27.0805C150.742 24.8377 148.154 22.9579 145.326 21.5188C142.447 20.0536 139.498 19.1245 136.329 18.5555C133.208 17.9951 130.024 17.8093 126.868 17.724C125.419 17.6848 123.97 17.6683 122.521 17.6593C120.8 17.6488 119.08 17.6497 117.359 17.6497L97.3822 17.5781H82.4409L62.8174 17.6497C61.0935 17.6497 59.3696 17.6488 57.6458 17.6593C56.1935 17.6683 54.7419 17.6848 53.2901 17.724C50.1269 17.8093 46.936 17.9953 43.8077 18.5563C40.6343 19.1252 37.6805 20.054 34.7974 21.5181C31.9633 22.9574 29.37 24.8373 27.1214 27.0805C24.8732 29.3231 22.9886 31.9095 21.546 34.7361C20.0772 37.6138 19.1459 40.5618 18.5753 43.7292C18.0135 46.8486 17.8274 50.0304 17.7418 53.1848C17.7028 54.6329 17.6859 56.0811 17.6771 57.5295C17.6665 59.2494 17.5781 61.3856 17.5781 63.1053L17.5787 82.457L17.5781 97.5583L17.6674 117.321C17.6674 119.043 17.6667 120.765 17.6771 122.487C17.6859 123.938 17.7028 125.388 17.742 126.838C17.8274 129.998 18.0139 133.185 18.5762 136.31C19.1466 139.48 20.0777 142.43 21.5453 145.31C22.9881 148.141 24.873 150.732 27.1214 152.978C29.3698 155.223 31.9624 157.106 34.7959 158.547C37.6808 160.014 40.6361 160.944 43.8113 161.514C46.9383 162.075 50.1282 162.262 53.2901 162.347C54.7419 162.386 56.1936 162.403 57.6459 162.412C59.3698 162.422 61.0935 162.421 62.8174 162.421L82.6183 162.422H97.5967L117.359 162.421C119.08 162.421 120.8 162.422 122.521 162.412C123.97 162.403 125.419 162.386 126.868 162.347C130.025 162.261 133.21 162.075 136.332 161.513C139.499 160.944 142.447 160.014 145.325 158.547C148.154 157.106 150.742 155.224 152.986 152.978C155.23 150.732 157.111 148.142 158.551 145.311C160.016 142.43 160.946 139.478 161.516 136.306C162.076 133.183 162.262 129.996 162.348 126.838C162.387 125.388 162.403 123.937 162.412 122.487C162.423 120.765 162.422 119.043 162.422 117.321C162.422 117.321 162.421 97.9072 162.421 97.5583V82.4412C162.421 82.1835 162.422 62.6884 162.422 62.6884" fill="#C4241D"/>
<path d="M66.3814 97.6385V108.493H34.8047V99.0048L56.21 76.385L60.9921 82.1538H35.2601V71.2993H66.0778V80.7875L44.5965 103.483L41.5603 97.6385H66.3814ZM87.9921 109.176C84.2471 109.176 80.958 108.392 78.1244 106.823C75.341 105.254 73.1649 103.028 71.5963 100.143C70.0276 97.259 69.2433 93.8433 69.2433 89.8962C69.2433 86.1009 70.0276 82.7359 71.5963 79.8007C73.1649 76.8656 75.341 74.5632 78.1244 72.8933C80.958 71.1726 84.2471 70.3125 87.9921 70.3125C91.8884 70.3125 95.2283 71.1982 98.0116 72.9692C100.795 74.7402 102.945 77.0933 104.464 80.0284C105.982 82.9128 106.741 86.1516 106.741 89.7444C106.741 90.5541 106.715 91.2876 106.665 91.9456C106.614 92.6036 106.538 93.1349 106.437 93.5396H78.428V85.19H96.9489L95.8863 87.9226C95.8863 85.5444 95.2534 83.596 93.9886 82.0779C92.7234 80.5598 90.775 79.8007 88.1439 79.8007C85.7149 79.8007 83.7917 80.509 82.3751 81.9261C80.958 83.3431 80.2497 85.2407 80.2497 87.619V91.7938C80.2497 94.3746 81.0088 96.3733 82.5269 97.7904C84.045 99.1567 86.1703 99.8398 88.9029 99.8398C91.0786 99.8398 92.7993 99.4351 94.0645 98.6253C95.3801 97.7652 96.4679 96.6769 97.3285 95.3614L105.526 99.7639C103.957 102.648 101.655 104.951 98.6189 106.671C95.5826 108.341 92.0402 109.176 87.9921 109.176Z" fill="white"/>
<path d="M129.287 70.3125C140.209 70.3125 149.062 79.1662 149.062 90.0879C149.062 101.01 140.209 109.863 129.287 109.863C118.365 109.863 109.512 101.01 109.512 90.0879C109.512 79.1662 118.365 70.3125 129.287 70.3125ZM129.287 82.6973C125.205 82.6973 121.897 86.0061 121.896 90.0879C121.896 94.1697 125.205 97.4785 129.287 97.4785C133.369 97.4785 136.678 94.1697 136.678 90.0879C136.678 86.0061 133.369 82.6973 129.287 82.6973Z" fill="white"/>
</svg>
