<svg width="24" height="24" viewBox="0 0 24 24" fill="none" xmlns="http://www.w3.org/2000/svg">
<g clip-path="url(#clip0_8_103)">
<g clip-path="url(#clip1_8_103)">
<mask id="mask0_8_103" style="mask-type:luminance" maskUnits="userSpaceOnUse" x="0" y="0" width="22" height="22">
<path d="M18.3486 0H3.65144C1.63481 0 0 1.63481 0 3.65144V18.3486C0 20.3652 1.63481 22 3.65144 22H18.3486C20.3652 22 22 20.3652 22 18.3486V3.65144C22 1.63481 20.3652 0 18.3486 0Z" fill="white"/>
</mask>
<g mask="url(#mask0_8_103)">
<path d="M22 0H0V22H22V0Z" fill="#489648"/>
</g>
<mask id="mask1_8_103" style="mask-type:luminance" maskUnits="userSpaceOnUse" x="0" y="0" width="22" height="22">
<path d="M18.3486 0H3.65144C1.63481 0 0 1.63481 0 3.65144V18.3486C0 20.3652 1.63481 22 3.65144 22H18.3486C20.3652 22 22 20.3652 22 18.3486V3.65144C22 1.63481 20.3652 0 18.3486 0Z" fill="white"/>
</mask>
<g mask="url(#mask1_8_103)">
<path d="M8.70816 22V20.1666L12.3748 17.4301V11.4583L12.8332 11H15.5832L16.4998 11.9166H21.9998V4.58329H16.9582L16.4998 5.04163H14.6665C14.5001 4.87527 13.9399 4.31502 13.2915 3.66663V-3.93024e-05C9.16185 -0.00151055 1.86021 0.00110195 -0.00206852 0.00113861C-0.000172211 2.97913 -0.000172211 22 -0.000172211 22C1.37483 21.9745 3.49171 22 8.70816 22Z" fill="#006400"/>
</g>
<mask id="mask2_8_103" style="mask-type:luminance" maskUnits="userSpaceOnUse" x="0" y="0" width="22" height="22">
<path d="M18.3486 0H3.65144C1.63481 0 0 1.63481 0 3.65144V18.3486C0 20.3652 1.63481 22 3.65144 22H18.3486C20.3652 22 22 20.3652 22 18.3486V3.65144C22 1.63481 20.3652 0 18.3486 0Z" fill="white"/>
</mask>
<g mask="url(#mask2_8_103)">
<path d="M18.5625 8.25H13.2917L10.0833 5.04166V-0.229172" stroke="#489648" stroke-width="2"/>
</g>
<mask id="mask3_8_103" style="mask-type:luminance" maskUnits="userSpaceOnUse" x="0" y="-1" width="55" height="23">
<path d="M45.8714 -0.0786438H9.1286C4.08701 -0.0786438 0 1.55616 0 3.5728V18.2699C0 20.2866 4.08701 21.9214 9.1286 21.9214H45.8714C50.913 21.9214 55 20.2866 55 18.2699V3.5728C55 1.55616 50.913 -0.0786438 45.8714 -0.0786438Z" fill="white"/>
</mask>
<g mask="url(#mask3_8_103)">
<path d="M0 13.213H4.58333" stroke="#489648" stroke-width="4.47214"/>
</g>
<mask id="mask4_8_103" style="mask-type:luminance" maskUnits="userSpaceOnUse" x="0" y="0" width="23" height="22">
<path d="M18.8075 0H4.1104C2.09377 0 0.458964 1.63481 0.458964 3.65144V18.3486C0.458964 20.3652 2.09377 22 4.1104 22H18.8075C20.8242 22 22.459 20.3652 22.459 18.3486V3.65144C22.459 1.63481 20.8242 0 18.8075 0Z" fill="white"/>
</mask>
<g mask="url(#mask4_8_103)">
<path d="M5.50063 22V18.7917L9.1673 16.0417V11L5.50063 7.33333V-0.229172" stroke="#489648" stroke-width="2.5"/>
</g>
<path d="M3.95982 15.0364C4.88718 15.0364 5.63895 14.2846 5.63895 13.3572C5.63895 12.4299 4.88718 11.6781 3.95982 11.6781C3.03247 11.6781 2.2807 12.4299 2.2807 13.3572C2.2807 14.2846 3.03247 15.0364 3.95982 15.0364Z" fill="white" stroke="#DD8D15" stroke-width="1.5" stroke-linecap="round" stroke-linejoin="round"/>
<path d="M19.1729 9.98498C20.1003 9.98498 20.852 9.23321 20.852 8.30586C20.852 7.37851 20.1003 6.62674 19.1729 6.62674C18.2456 6.62674 17.4938 7.37851 17.4938 8.30586C17.4938 9.23321 18.2456 9.98498 19.1729 9.98498Z" fill="white" stroke="#DD8D15" stroke-width="1.5" stroke-linecap="round" stroke-linejoin="round"/>
</g>
<path d="M24 16.9935C24.0013 18.3782 23.5918 19.7323 22.8234 20.8843C22.0551 22.0363 20.9623 22.9345 19.6833 23.4653C18.4043 23.9961 16.9967 24.1356 15.6384 23.8663C14.2801 23.5969 13.0322 22.9308 12.0526 21.9521C11.073 20.9734 10.4056 19.7261 10.135 18.3681C9.86436 17.01 10.0026 15.6023 10.5322 14.3228C11.0618 13.0433 11.959 11.9497 13.1103 11.1802C14.2615 10.4107 15.6152 10 16.9999 10C17.9187 9.99957 18.8286 10.1801 19.6777 10.5313C20.5268 10.8826 21.2983 11.3976 21.9483 12.047C22.5984 12.6964 23.1141 13.4675 23.4661 14.3162C23.8182 15.1649 23.9996 16.0747 24 16.9935Z" fill="#BF2641"/>
<path d="M14.1149 13.4999C13.8166 13.5074 13.5331 13.6336 13.3247 13.8515C13.1164 14.0695 12.9998 14.362 12.9999 14.6666C12.9998 14.6761 12.9998 14.6855 12.9999 14.695V19.3331C12.9999 19.6425 13.1203 19.9393 13.3347 20.158C13.549 20.3768 13.8397 20.4997 14.1428 20.4997C14.1521 20.4999 14.1614 20.4999 14.1707 20.4997H19.8569C20.16 20.4997 20.4507 20.3768 20.665 20.158C20.8793 19.9393 20.9997 19.6425 20.9997 19.3331C20.9999 19.3236 20.9999 19.3141 20.9997 19.3046V15.8332C20.9997 15.5238 20.8793 15.2271 20.665 15.0083C20.4507 14.7895 20.16 14.6666 19.8569 14.6666H19.829H17.2856L16.1427 13.4999H14.1428C14.1335 13.4998 14.1242 13.4998 14.1149 13.4999Z" fill="white"/>
</g>
<defs>
<clipPath id="clip0_8_103">
<rect width="24" height="24" fill="white"/>
</clipPath>
<clipPath id="clip1_8_103">
<rect width="22" height="22" fill="white"/>
</clipPath>
</defs>
</svg>
