<svg width="24" height="24" viewBox="0 0 24 24" fill="none" xmlns="http://www.w3.org/2000/svg">
<g clip-path="url(#clip0_2_734)">
<mask id="mask0_2_734" style="mask-type:luminance" maskUnits="userSpaceOnUse" x="1" y="1" width="22" height="22">
<path d="M19.4094 1H4.59058C2.60756 1 1 2.60756 1 4.59058V19.4094C1 21.3924 2.60756 23 4.59058 23H19.4094C21.3924 23 23 21.3924 23 19.4094V4.59058C23 2.60756 21.3924 1 19.4094 1Z" fill="white"/>
</mask>
<g mask="url(#mask0_2_734)">
<path d="M19.4094 1H4.59058C2.60756 1 1 2.60756 1 4.59058V19.4094C1 21.3924 2.60756 23 4.59058 23H19.4094C21.3924 23 23 21.3924 23 19.4094V4.59058C23 2.60756 21.3924 1 19.4094 1Z" fill="#D0C5AC"/>
<path d="M19.4094 1H4.59058C2.60756 1 1 2.60756 1 4.59058V19.4094C1 21.3924 2.60756 23 4.59058 23H19.4094C21.3924 23 23 21.3924 23 19.4094V4.59058C23 2.60756 21.3924 1 19.4094 1Z" fill="#D0C5AC"/>
<path d="M11.5417 5.58334V10.625" stroke="#333333" stroke-width="1.5" stroke-linecap="round" stroke-linejoin="round"/>
<path d="M11.5417 10.625L15.6667 10.625" stroke="#333333" stroke-width="1.5" stroke-linecap="round" stroke-linejoin="round"/>
<path d="M9.25 5.58334V12.9167" stroke="#333333" stroke-width="1.5" stroke-linecap="round" stroke-linejoin="round"/>
<path d="M9.25 12.9167L15.6667 12.9167" stroke="#333333" stroke-width="1.5" stroke-linecap="round" stroke-linejoin="round"/>
<path d="M6.95833 5.58334V15.2083" stroke="#333333" stroke-width="1.5" stroke-linecap="round" stroke-linejoin="round"/>
<path d="M6.95833 15.2083L15.6667 15.2083" stroke="#333333" stroke-width="1.5" stroke-linecap="round" stroke-linejoin="round"/>
<path d="M4.66667 5.58334V17.5" stroke="#333333" stroke-width="1.5" stroke-linecap="round" stroke-linejoin="round"/>
<path d="M4.66667 17.5L15.6667 17.5" stroke="#333333" stroke-width="1.5" stroke-linecap="round" stroke-linejoin="round"/>
<path d="M23.4583 10.625H18.0317" stroke="#333333" stroke-width="2" stroke-linejoin="round"/>
<rect x="-1.75" y="0.0833359" width="14.6667" height="6.41667" rx="0.5" fill="#737373"/>
<rect x="14.75" y="23.9167" width="14.6667" height="9.16667" rx="0.5" transform="rotate(-90 14.75 23.9167)" fill="#737373"/>
</g>
<path d="M23.2324 18.075L21.965 17.168L21.95 17.1949C21.9883 16.9675 22.0114 16.7377 22.0193 16.5072C22.012 16.262 21.9873 16.0176 21.9455 15.7758L21.9529 15.7885L23.2105 14.8685C23.4859 14.6667 23.5655 14.29 23.3953 13.994L22.2626 12.0257C22.0923 11.7297 21.7266 11.609 21.4137 11.7457L19.986 12.3705L19.9984 12.392C19.6108 12.0801 19.1806 11.8252 18.721 11.635L18.5516 10.0964C18.5141 9.75705 18.2274 9.50018 17.886 9.5H15.615C15.2735 9.50007 14.9867 9.75698 14.9492 10.0964L14.7792 11.6417C14.3013 11.8427 13.856 12.1138 13.4581 12.4461L13.4761 12.4139L12.0419 11.8039C11.7275 11.6704 11.3631 11.7948 11.1959 12.0925L10.0841 14.0725C9.917 14.3704 10.0007 14.7462 10.2784 14.945L11.5458 15.852L11.5734 15.8028C11.5338 16.0355 11.5101 16.2706 11.5025 16.5065C11.5094 16.7619 11.5349 17.0165 11.5792 17.2681L11.5582 17.2314L10.3006 18.1519C10.0251 18.3536 9.94533 18.7303 10.1155 19.0263L11.2482 20.9947C11.4186 21.2905 11.7842 21.4109 12.0971 21.2742L13.525 20.6493L13.4957 20.5986C13.8869 20.9186 14.3225 21.18 14.789 21.3748L14.959 22.9235C14.9965 23.2629 15.2831 23.5197 15.6246 23.5199H17.8956C18.237 23.5197 18.5236 23.2629 18.5612 22.9235L18.7317 21.3751C19.2079 21.1763 19.6521 20.9079 20.0497 20.5788L20.0343 20.6059L21.4687 21.2159C21.7829 21.3493 22.1473 21.2249 22.3146 20.9274L23.4263 18.9474C23.5933 18.6497 23.5098 18.2739 23.2324 18.075ZM16.8098 18.3785C15.1309 18.3785 14.2437 16.395 15.4334 15.1106C16.3397 14.1323 18.7375 14.4857 18.7375 16.5215C18.7375 17.6883 17.9765 18.3784 16.8098 18.3785Z" fill="#BF2641" stroke="white" stroke-linejoin="round"/>
</g>
<defs>
<clipPath id="clip0_2_734">
<rect width="24" height="24" fill="white"/>
</clipPath>
</defs>
</svg>
