<svg width="24" height="24" viewBox="0 0 24 24" fill="none" xmlns="http://www.w3.org/2000/svg">
<g clip-path="url(#clip0_2_484)">
<mask id="mask0_2_484" style="mask-type:luminance" maskUnits="userSpaceOnUse" x="0" y="0" width="24" height="24">
<path d="M20.0166 0H3.98339C1.78342 0 0 1.78342 0 3.98339V20.0166C0 22.2166 1.78342 24 3.98339 24H20.0166C22.2166 24 24 22.2166 24 20.0166V3.98339C24 1.78342 22.2166 0 20.0166 0Z" fill="white"/>
</mask>
<g mask="url(#mask0_2_484)">
<path d="M24 0H0V24H24V0Z" fill="#489648"/>
</g>
<mask id="mask1_2_484" style="mask-type:luminance" maskUnits="userSpaceOnUse" x="0" y="0" width="24" height="24">
<path d="M20.0166 0H3.98339C1.78342 0 0 1.78342 0 3.98339V20.0166C0 22.2166 1.78342 24 3.98339 24H20.0166C22.2166 24 24 22.2166 24 20.0166V3.98339C24 1.78342 22.2166 0 20.0166 0Z" fill="white"/>
</mask>
<g mask="url(#mask1_2_484)">
<path d="M9.5 24H12L16 20V14L17 13L18 14H24V4H19L17.5 5.5H16L14.5 4V1.51381e-06C9.99494 -0.00160349 2.02951 0.00124651 -0.00206852 0.00128651C1.80444e-07 3.25 1.80444e-07 24 1.80444e-07 24C1.5 23.9722 3.80933 24 9.5 24Z" fill="#006400"/>
</g>
<mask id="mask2_2_484" style="mask-type:luminance" maskUnits="userSpaceOnUse" x="0" y="0" width="24" height="24">
<path d="M20.0166 0H3.98339C1.78342 0 0 1.78342 0 3.98339V20.0166C0 22.2166 1.78342 24 3.98339 24H20.0166C22.2166 24 24 22.2166 24 20.0166V3.98339C24 1.78342 22.2166 0 20.0166 0Z" fill="white"/>
</mask>
<g mask="url(#mask2_2_484)">
<path d="M20.25 9H16L13 12V20" stroke="#489648" stroke-width="2"/>
</g>
<mask id="mask3_2_484" style="mask-type:luminance" maskUnits="userSpaceOnUse" x="0" y="-1" width="60" height="25">
<path d="M50.0415 -0.0857849H9.95847C4.45856 -0.0857849 0 1.69764 0 3.8976V19.9308C0 22.1308 4.45856 23.9142 9.95847 23.9142H50.0415C55.5414 23.9142 60 22.1308 60 19.9308V3.8976C60 1.69764 55.5414 -0.0857849 50.0415 -0.0857849Z" fill="white"/>
</mask>
<g mask="url(#mask3_2_484)">
<path d="M0 14.4142H5" stroke="#2CB22C" stroke-width="4.47214"/>
</g>
<mask id="mask4_2_484" style="mask-type:luminance" maskUnits="userSpaceOnUse" x="0" y="0" width="25" height="24">
<path d="M20.5173 0H4.48408C2.28411 0 0.500688 1.78342 0.500688 3.98339V20.0166C0.500688 22.2166 2.28411 24 4.48408 24H20.5173C22.7173 24 24.5007 22.2166 24.5007 20.0166V3.98339C24.5007 1.78342 22.7173 0 20.5173 0Z" fill="white"/>
</mask>
<g mask="url(#mask4_2_484)">
<path d="M6.00069 24V20.5L10.0007 17.5V12L6.00069 8V-0.25" stroke="#2CB22C" stroke-width="2.5"/>
</g>
<path d="M5.5 16.3318C6.51166 16.3318 7.33177 15.5117 7.33177 14.5C7.33177 13.4883 6.51166 12.6682 5.5 12.6682C4.48834 12.6682 3.66823 13.4883 3.66823 14.5C3.66823 15.5117 4.48834 16.3318 5.5 16.3318Z" fill="white" stroke="#F29100" stroke-width="1.5" stroke-linecap="round" stroke-linejoin="round"/>
<path d="M20.9159 10.8927C21.9276 10.8927 22.7477 10.0726 22.7477 9.06094C22.7477 8.04928 21.9276 7.22917 20.9159 7.22917C19.9043 7.22917 19.0841 8.04928 19.0841 9.06094C19.0841 10.0726 19.9043 10.8927 20.9159 10.8927Z" fill="white" stroke="#DD8D15" stroke-width="1.5" stroke-linecap="round" stroke-linejoin="round"/>
<mask id="mask5_2_484" style="mask-type:luminance" maskUnits="userSpaceOnUse" x="0" y="0" width="19" height="24">
<path d="M19 0L5 24H0V0H19Z" fill="white"/>
</mask>
<g mask="url(#mask5_2_484)">
<path d="M20.0018 0H3.9967C1.78938 0 0 1.78938 0 3.9967V19.9652C0 22.1725 1.78938 23.9619 3.9967 23.9619H20.0018C22.2091 23.9619 23.9985 22.1725 23.9985 19.9652V3.9967C23.9985 1.78938 22.2091 0 20.0018 0Z" fill="#D0C5AC"/>
</g>
<path d="M11.5 5V10.5" stroke="#545454" stroke-width="1.5" stroke-linecap="round" stroke-linejoin="round"/>
<path d="M9 5V13" stroke="#545454" stroke-width="1.5" stroke-linecap="round" stroke-linejoin="round"/>
<path d="M6.5 5V15.5" stroke="#545454" stroke-width="1.5" stroke-linecap="round" stroke-linejoin="round"/>
<path d="M4 5V18" stroke="#545454" stroke-width="1.5" stroke-linecap="round" stroke-linejoin="round"/>
<path d="M0 4C0 1.79086 1.79086 0 4 0H13V5.5C13 5.77614 12.7761 6 12.5 6H0V4Z" fill="#BF2641"/>
<path d="M12.4375 11.25H11.5C11.0858 11.25 10.75 10.9142 10.75 10.5C10.75 10.0858 11.0858 9.75 11.5 9.75H13.3125L12.4375 11.25Z" fill="#545454"/>
<path d="M10.9795 13.75H9C8.58579 13.75 8.25 13.4142 8.25 13C8.25 12.5858 8.58579 12.25 9 12.25H11.8545L10.9795 13.75Z" fill="#545454"/>
<path d="M8.0625 18.75H4C3.58579 18.75 3.25 18.4142 3.25 18C3.25 17.5858 3.58579 17.25 4 17.25H8.9375L8.0625 18.75Z" fill="#545454"/>
<path d="M9.52051 16.25H6.5C6.08579 16.25 5.75 15.9142 5.75 15.5C5.75 15.0858 6.08579 14.75 6.5 14.75H10.3955L9.52051 16.25Z" fill="#545454"/>
<path d="M5.14359 24L19 0" stroke="white" stroke-width="3" stroke-linecap="round"/>
<path d="M5.14359 24L19 0" stroke="#545454" stroke-width="1.5" stroke-linecap="round"/>
<path d="M7.8527 16.4645L11.2467 19.9895L7.8527 23.5159" stroke="#FFFEFE" stroke-width="3.99999" stroke-linecap="round" stroke-linejoin="round"/>
<path d="M2.51463 12.3316C1.74198 12.3316 0.988034 12.7885 0.574569 13.4002C-0.382256 14.8156 -0.149299 17.0385 -0.0466221 18.488C0.188736 21.8106 1.9015 22.4084 3.78962 22.8236C6.12892 23.338 10.8494 21.104 10.8494 21.104C11.6182 21.0395 12.2484 20.5778 12.2484 19.9287C12.2484 19.2797 11.622 18.7535 10.8494 18.7535C10.8494 18.7535 6.93776 18.3685 5.233 16.9364C3.71242 15.659 4.67536 15.2614 4.32554 13.3084C4.22786 12.7631 3.28728 12.3316 2.51463 12.3316Z" fill="white"/>
<path d="M2.66162 13.3363C1.92966 13.3363 1.61519 13.9145 1.33628 14.3363C0.462854 15.6573 0.268728 17.5055 0.516592 18.7217C0.948233 20.8398 2.62504 21.3533 4.41375 21.7066C6.62988 22.1443 10.8389 20.9477 10.8389 20.9477C11.5672 20.8928 12.1642 20.5 12.1642 19.9477C12.1642 19.3954 11.5708 18.9477 10.8389 18.9477C10.8389 18.9477 6.74436 18.8253 5.12935 17.6067C3.68883 16.5198 3.9792 15.3988 3.98696 14.3363C3.99041 13.865 3.39359 13.3363 2.66162 13.3363Z" fill="#BF2641"/>
<path d="M8 17L11.2153 19.9994L8 23" stroke="#BF2641" stroke-width="1.99999" stroke-linecap="round" stroke-linejoin="round"/>
</g>
<defs>
<clipPath id="clip0_2_484">
<rect width="24" height="24" fill="white"/>
</clipPath>
</defs>
</svg>
